<svg width="84" height="84" viewBox="0 0 84 84" fill="none" xmlns="http://www.w3.org/2000/svg">
<path d="M78.0426 16.2832H5.95744C2.61729 16.2832 0 18.9005 0 22.2406V73.3755C0 76.7156 2.61729 79.3329 5.95744 79.3329H78.0426C81.3827 79.3329 84 76.7156 84 73.3755V22.2406C84 18.9005 81.3827 16.2832 78.0426 16.2832ZM78.0426 73.3753H5.95744L5.91183 22.2446C5.91183 22.2446 5.92577 22.2406 5.95744 22.2406H78.0426V73.3753Z" fill="black"/>
<path d="M81.0213 37.2334H2.97876V43.1908H81.0213V37.2334Z" fill="black"/>
<path d="M49.5461 40.2119V51.2331H34.4538V40.2119H28.4963V54.2119C28.4963 55.8571 29.8298 57.1906 31.4751 57.1906H52.5248C54.171 57.1906 55.5035 55.8571 55.5035 54.2119V40.2119H49.5461Z" fill="black"/>
<path d="M53.22 4.66602H30.7802C26.9475 4.66602 23.8298 7.78369 23.8298 11.6164V19.2617H29.7873V11.6164C29.7873 11.0782 30.2421 10.6235 30.7802 10.6235H53.2198C53.758 10.6235 54.2127 11.0782 54.2127 11.6164V19.2617H60.1702V11.6164C60.1703 7.78386 57.0515 4.66602 53.22 4.66602Z" fill="black"/>
</svg>
