<svg width="17" height="15" viewBox="0 0 17 15" fill="none" xmlns="http://www.w3.org/2000/svg">
<path d="M10.419 2.62341H2.89303C2.18685 2.62341 1.61328 3.15485 1.61328 3.80916V13.8143C1.61328 14.4686 2.18685 15 2.89303 15H10.419C11.1252 15 11.6988 14.4686 11.6988 13.8143V3.80916C11.6954 3.15485 11.1219 2.62341 10.419 2.62341ZM10.8003 13.8112C10.8003 14.0078 10.6279 14.1675 10.4157 14.1675H2.88971C2.67753 14.1675 2.50513 14.0078 2.50513 13.8112V3.80916C2.50513 3.61256 2.67753 3.45282 2.88971 3.45282H10.4157C10.6279 3.45282 10.8003 3.61256 10.8003 3.80916V13.8112Z" fill="#4F4F4F"/>
<path d="M13.2969 0H5.77096C5.06478 0 4.49121 0.531436 4.49121 1.18575C4.49121 1.41614 4.69014 1.60045 4.93879 1.60045C5.18745 1.60045 5.38637 1.41614 5.38637 1.18575C5.38637 0.989146 5.55877 0.829408 5.77096 0.829408H13.2969C13.5091 0.829408 13.6815 0.989146 13.6815 1.18575V11.1909C13.6815 11.3875 13.5091 11.5472 13.2969 11.5472C13.0483 11.5472 12.8494 11.7315 12.8494 11.9619C12.8494 12.1923 13.0483 12.3766 13.2969 12.3766C14.0031 12.3766 14.5767 11.8452 14.5767 11.1909V1.18575C14.5767 0.531436 14.0031 0 13.2969 0Z" fill="#4F4F4F"/>
</svg>
