<svg width="57" height="57" viewBox="0 0 57 57" fill="none" xmlns="http://www.w3.org/2000/svg">
<path d="M25.5452 19.8685H31.2219V14.1918H25.5452V19.8685ZM28.3835 51.0903C15.8664 51.0903 5.6767 40.9006 5.6767 28.3835C5.6767 15.8664 15.8664 5.6767 28.3835 5.6767C40.9006 5.6767 51.0903 15.8664 51.0903 28.3835C51.0903 40.9006 40.9006 51.0903 28.3835 51.0903ZM28.3835 0C24.6561 0 20.9653 0.734161 17.5216 2.16057C14.078 3.58697 10.949 5.67769 8.31334 8.31334C2.9904 13.6363 0 20.8557 0 28.3835C0 35.9113 2.9904 43.1308 8.31334 48.4537C10.949 51.0893 14.078 53.1801 17.5216 54.6065C20.9653 56.0329 24.6561 56.767 28.3835 56.767C35.9113 56.767 43.1308 53.7766 48.4537 48.4537C53.7766 43.1308 56.767 35.9113 56.767 28.3835C56.767 24.6561 56.0329 20.9653 54.6065 17.5216C53.1801 14.078 51.0893 10.949 48.4537 8.31334C45.818 5.67769 42.6891 3.58697 39.2454 2.16057C35.8018 0.734161 32.1109 0 28.3835 0ZM25.5452 42.5753H31.2219V25.5452H25.5452V42.5753Z" fill="#5BE2C4"/>
</svg>
