<svg width="21" height="26" viewBox="0 0 21 26" fill="none" xmlns="http://www.w3.org/2000/svg">
<path d="M4.76566 10.7476C4.40984 10.7476 4.11816 11.0334 4.11816 11.3821V11.3936C4.11816 11.7423 4.40984 12.0281 4.76566 12.0281C5.12149 12.0281 5.41314 11.7423 5.41314 11.3936V11.3821C5.41314 11.0334 5.12149 10.7476 4.76566 10.7476Z" fill="#717579"/>
<path d="M10.4993 5.13379C7.9327 5.13379 5.62275 6.63159 4.61943 8.9469C4.47943 9.26704 4.63109 9.64434 4.96359 9.77583C5.04525 9.81013 5.12692 9.82728 5.21441 9.82728C5.47691 9.82728 5.71025 9.67293 5.80942 9.43854C6.60857 7.59201 8.44604 6.3972 10.4935 6.3972C10.8493 6.3972 11.141 6.11136 11.141 5.76264C11.1468 5.41963 10.861 5.13379 10.4993 5.13379Z" fill="#717579"/>
<path d="M20.1947 19.0084C19.6755 18.5396 19.3722 17.8764 19.3722 17.1904V11.3936C19.3722 9.40413 18.6664 7.45471 17.3831 5.91117C16.1056 4.37335 14.3206 3.30431 12.349 2.89842C12.489 2.62401 12.559 2.3153 12.559 2.01231C12.559 0.903254 11.6373 0 10.5057 0C9.37402 0 8.45238 0.903254 8.45238 2.01231C8.45238 2.32102 8.5282 2.62401 8.66237 2.89842C6.69073 3.31003 4.90576 4.37907 3.62828 5.91117C2.34496 7.45471 1.63914 9.40413 1.63914 11.3936V17.1904C1.63914 17.8764 1.34166 18.5396 0.816668 19.0084C0.29751 19.4714 0 20.1346 0 20.8263C0 22.1812 1.12581 23.2902 2.51413 23.2902H7.13406C7.28572 24.0391 7.70572 24.7252 8.31821 25.2225C8.93653 25.7256 9.71235 26 10.4998 26C11.2873 26 12.0632 25.7256 12.6815 25.2225C13.294 24.7252 13.714 24.0391 13.8656 23.2902H18.4855C19.868 23.2902 20.9997 22.1869 20.9997 20.8263C21.0113 20.1346 20.7138 19.4771 20.1947 19.0084ZM10.4998 1.30915C10.8965 1.30915 11.2115 1.62357 11.2115 2.0066C11.2115 2.38962 10.8907 2.70405 10.4998 2.70405C10.109 2.70405 9.78818 2.38962 9.78818 2.0066C9.78818 1.62357 10.109 1.30915 10.4998 1.30915ZM2.9808 17.1904V11.3936C2.9808 7.36895 6.34657 4.08751 10.5057 4.03034C14.6648 4.08751 17.9489 7.17458 18.0306 11.3936V17.1904C18.0306 17.3619 18.0422 17.5391 18.0714 17.7164H10.5057H2.93996C2.96329 17.5391 2.9808 17.3619 2.9808 17.1904ZM10.4998 24.6851C9.59568 24.6851 8.79653 24.1249 8.5107 23.2845H12.4832C12.2032 24.1249 11.4098 24.6851 10.4998 24.6851ZM18.4914 21.9754H2.51413C1.86664 21.9754 1.34166 21.4609 1.34166 20.8263C1.34166 20.5062 1.48166 20.1917 1.72665 19.9745C2.05915 19.6715 2.33913 19.3228 2.54912 18.9226H18.468C18.678 19.3228 18.958 19.6715 19.2905 19.9745C19.5355 20.1917 19.6697 20.5004 19.6697 20.8263C19.6639 21.4609 19.1389 21.9754 18.4914 21.9754Z" fill="#717579"/>
</svg>
