<svg width="13" height="14" viewBox="0 0 13 14" fill="none" xmlns="http://www.w3.org/2000/svg">
<g clip-path="url(#clip0_29_849)">
<path d="M6.1404 12.8334C8.96642 12.8334 11.2574 10.2217 11.2574 7.00008C11.2574 3.77842 8.96642 1.16675 6.1404 1.16675C3.31438 1.16675 1.02344 3.77842 1.02344 7.00008C1.02344 10.2217 3.31438 12.8334 6.1404 12.8334Z" stroke="black" stroke-width="2" stroke-linecap="round" stroke-linejoin="round"/>
<path d="M4.65137 5.25009C4.77167 4.86023 5.00912 4.53148 5.32167 4.32208C5.63421 4.11268 6.00168 4.03614 6.35899 4.106C6.71629 4.17587 7.04038 4.38764 7.27385 4.70381C7.50731 5.01998 7.63509 5.42014 7.63455 5.83342C7.63455 7.00009 6.09947 7.58342 6.09947 7.58342" stroke="black" stroke-width="2" stroke-linecap="round" stroke-linejoin="round"/>
<path d="M6.14038 9.91675H6.14621" stroke="black" stroke-width="2" stroke-linecap="round" stroke-linejoin="round"/>
</g>
<defs>
<clipPath id="clip0_29_849">
<rect width="12.2807" height="14" fill="white"/>
</clipPath>
</defs>
</svg>
