<?xml version="1.0" encoding="utf-8"?>
<!-- Generator: Adobe Illustrator 24.2.0, SVG Export Plug-In . SVG Version: 6.00 Build 0)  -->
<svg version="1.1" id="Capa_1" xmlns="http://www.w3.org/2000/svg" xmlns:xlink="http://www.w3.org/1999/xlink" x="0px" y="0px"
	 viewBox="0 0 710.97 191.29" style="enable-background:new 0 0 710.97 191.29;" xml:space="preserve">
<style type="text/css">
	.st0{fill:#535353;}
	.st1{fill:#FFFFFF;}
	.st2{fill:#D7D7D7;}
</style>
<g>
	<rect x="541.88" y="83.66" class="st0" width="3.66" height="94.1"/>
	<rect x="549.2" y="83.66" class="st0" width="3.66" height="94.1"/>
	<rect x="545.54" y="80" class="st0" width="3.66" height="3.66"/>
	<rect x="538.22" y="177.76" class="st0" width="18.31" height="3.66"/>
	<g>
		<g>
			<rect x="507.98" y="114.59" class="st0" width="4.43" height="4.43"/>
			<rect x="503.55" y="110.16" class="st0" width="4.43" height="4.43"/>
			<rect x="499.12" y="105.73" class="st0" width="4.43" height="4.43"/>
			<rect x="507.98" y="96.87" class="st0" width="4.43" height="4.43"/>
			<rect x="503.55" y="101.3" class="st0" width="4.43" height="4.43"/>
			<rect x="512.41" y="92.44" class="st0" width="75.3" height="4.43"/>
			<rect x="512.41" y="119.02" class="st0" width="75.3" height="4.43"/>
			<rect x="583.29" y="92.44" class="st0" width="4.43" height="31.01"/>
			<polygon class="st0" points="514.07,121.88 585.5,121.88 585.5,94.89 514.58,94.02 512.04,97.67 507.28,102.19 502.91,106.62 
				501.38,107.95 503.01,109.86 504.16,110.99 508.71,115.55 513.15,119.99 			"/>
		</g>
		<g>
			<g id="XMLID_1_">
				<g>
					<rect x="553.12" y="114.22" class="st1" width="1.04" height="1.04"/>
					<rect x="553.12" y="104.81" class="st1" width="1.04" height="1.04"/>
					<rect x="553.12" y="103.77" class="st1" width="1.04" height="1.04"/>
					<rect x="553.12" y="102.72" class="st1" width="1.04" height="1.05"/>
					<rect x="553.12" y="101.68" class="st1" width="1.04" height="1.04"/>
					<rect x="553.12" y="100.63" class="st1" width="1.04" height="1.04"/>
					<rect x="552.07" y="114.22" class="st1" width="1.04" height="1.04"/>
					<rect x="552.07" y="113.17" class="st1" width="1.04" height="1.04"/>
					<rect x="552.07" y="103.77" class="st1" width="1.04" height="1.04"/>
					<rect x="552.07" y="102.72" class="st1" width="1.04" height="1.05"/>
					<rect x="552.07" y="101.68" class="st1" width="1.04" height="1.04"/>
					<rect x="552.07" y="100.63" class="st1" width="1.04" height="1.04"/>
					<rect x="551.03" y="114.22" class="st1" width="1.05" height="1.04"/>
					<rect x="551.03" y="113.17" class="st1" width="1.05" height="1.04"/>
					<rect x="551.03" y="112.13" class="st1" width="1.05" height="1.04"/>
					<rect x="551.03" y="103.77" class="st1" width="1.05" height="1.04"/>
					<rect x="551.03" y="102.72" class="st1" width="1.05" height="1.05"/>
					<rect x="551.03" y="101.68" class="st1" width="1.05" height="1.04"/>
					<rect x="551.03" y="100.63" class="st1" width="1.05" height="1.04"/>
					<rect x="549.98" y="114.22" class="st1" width="1.04" height="1.04"/>
					<rect x="549.98" y="113.17" class="st1" width="1.04" height="1.04"/>
					<rect x="549.98" y="112.13" class="st1" width="1.04" height="1.04"/>
					<rect x="549.98" y="111.08" class="st1" width="1.04" height="1.05"/>
					<rect x="549.98" y="104.81" class="st1" width="1.04" height="1.04"/>
					<rect x="549.98" y="103.77" class="st1" width="1.04" height="1.04"/>
					<rect x="549.98" y="102.72" class="st1" width="1.04" height="1.05"/>
					<rect x="549.98" y="101.68" class="st1" width="1.04" height="1.04"/>
					<rect x="549.98" y="100.63" class="st1" width="1.04" height="1.04"/>
					<rect x="548.94" y="113.17" class="st1" width="1.04" height="1.04"/>
					<rect x="548.94" y="112.13" class="st1" width="1.04" height="1.04"/>
					<rect x="548.94" y="111.08" class="st1" width="1.04" height="1.05"/>
					<rect x="548.94" y="110.04" class="st1" width="1.04" height="1.04"/>
					<rect x="548.94" y="105.86" class="st1" width="1.04" height="1.04"/>
					<rect x="548.94" y="104.81" class="st1" width="1.04" height="1.04"/>
					<rect x="548.94" y="103.77" class="st1" width="1.04" height="1.04"/>
					<rect x="548.94" y="102.72" class="st1" width="1.04" height="1.05"/>
					<rect x="548.94" y="101.68" class="st1" width="1.04" height="1.04"/>
					<rect x="548.94" y="100.63" class="st1" width="1.04" height="1.04"/>
					<rect x="547.89" y="112.13" class="st1" width="1.04" height="1.04"/>
					<rect x="547.89" y="111.08" class="st1" width="1.04" height="1.05"/>
					<rect x="547.89" y="110.04" class="st1" width="1.04" height="1.04"/>
					<rect x="547.89" y="106.9" class="st1" width="1.04" height="1.04"/>
					<rect x="547.89" y="105.86" class="st1" width="1.04" height="1.04"/>
					<rect x="547.89" y="104.81" class="st1" width="1.04" height="1.04"/>
					<rect x="547.89" y="103.77" class="st1" width="1.04" height="1.04"/>
					<rect x="547.89" y="100.63" class="st1" width="1.04" height="1.04"/>
					<rect x="546.85" y="111.08" class="st1" width="1.04" height="1.05"/>
					<rect x="546.85" y="107.95" class="st1" width="1.04" height="1.04"/>
					<rect x="546.85" y="106.9" class="st1" width="1.04" height="1.04"/>
					<rect x="546.85" y="105.86" class="st1" width="1.04" height="1.04"/>
					<rect x="546.85" y="104.81" class="st1" width="1.04" height="1.04"/>
					<rect x="545.8" y="108.99" class="st1" width="1.04" height="1.04"/>
					<rect x="545.8" y="107.95" class="st1" width="1.04" height="1.04"/>
					<rect x="545.8" y="106.9" class="st1" width="1.04" height="1.04"/>
					<rect x="545.8" y="105.86" class="st1" width="1.04" height="1.04"/>
					<rect x="544.76" y="110.04" class="st1" width="1.04" height="1.04"/>
					<rect x="544.76" y="108.99" class="st1" width="1.04" height="1.04"/>
					<rect x="544.76" y="107.95" class="st1" width="1.04" height="1.04"/>
					<rect x="544.76" y="106.9" class="st1" width="1.04" height="1.04"/>
					<rect x="543.71" y="111.08" class="st1" width="1.04" height="1.05"/>
					<rect x="543.71" y="110.04" class="st1" width="1.04" height="1.04"/>
					<rect x="543.71" y="108.99" class="st1" width="1.04" height="1.04"/>
					<rect x="543.71" y="107.95" class="st1" width="1.04" height="1.04"/>
					<rect x="542.67" y="112.13" class="st1" width="1.05" height="1.04"/>
					<rect x="542.67" y="111.08" class="st1" width="1.05" height="1.05"/>
					<rect x="542.67" y="110.04" class="st1" width="1.05" height="1.04"/>
					<rect x="542.67" y="108.99" class="st1" width="1.05" height="1.04"/>
					<rect x="542.67" y="107.95" class="st1" width="1.05" height="1.04"/>
					<rect x="542.67" y="106.9" class="st1" width="1.05" height="1.04"/>
					<rect x="542.67" y="105.86" class="st1" width="1.05" height="1.04"/>
					<rect x="542.67" y="104.81" class="st1" width="1.05" height="1.04"/>
					<rect x="542.67" y="103.77" class="st1" width="1.05" height="1.04"/>
					<rect x="542.67" y="102.72" class="st1" width="1.05" height="1.05"/>
					<rect x="541.62" y="113.17" class="st1" width="1.04" height="1.04"/>
					<rect x="541.62" y="112.13" class="st1" width="1.04" height="1.04"/>
					<rect x="541.62" y="111.08" class="st1" width="1.04" height="1.05"/>
					<rect x="541.62" y="110.04" class="st1" width="1.04" height="1.04"/>
					<rect x="541.62" y="108.99" class="st1" width="1.04" height="1.04"/>
					<rect x="541.62" y="107.95" class="st1" width="1.04" height="1.04"/>
					<rect x="541.62" y="106.9" class="st1" width="1.04" height="1.04"/>
					<rect x="541.62" y="105.86" class="st1" width="1.04" height="1.04"/>
					<rect x="541.62" y="104.81" class="st1" width="1.04" height="1.04"/>
					<rect x="541.62" y="103.77" class="st1" width="1.04" height="1.04"/>
					<rect x="541.62" y="102.72" class="st1" width="1.04" height="1.05"/>
					<rect x="541.62" y="101.68" class="st1" width="1.04" height="1.04"/>
					<rect x="540.58" y="114.22" class="st1" width="1.04" height="1.04"/>
					<rect x="540.58" y="113.17" class="st1" width="1.04" height="1.04"/>
					<rect x="540.58" y="112.13" class="st1" width="1.04" height="1.04"/>
					<rect x="540.58" y="111.08" class="st1" width="1.04" height="1.05"/>
					<rect x="540.58" y="110.04" class="st1" width="1.04" height="1.04"/>
					<rect x="540.58" y="108.99" class="st1" width="1.04" height="1.04"/>
					<rect x="540.58" y="107.95" class="st1" width="1.04" height="1.04"/>
					<rect x="540.58" y="106.9" class="st1" width="1.04" height="1.04"/>
					<rect x="540.58" y="105.86" class="st1" width="1.04" height="1.04"/>
					<rect x="540.58" y="104.81" class="st1" width="1.04" height="1.04"/>
					<rect x="540.58" y="103.77" class="st1" width="1.04" height="1.04"/>
					<rect x="540.58" y="102.72" class="st1" width="1.04" height="1.05"/>
					<rect x="540.58" y="101.68" class="st1" width="1.04" height="1.04"/>
					<rect x="540.58" y="100.63" class="st1" width="1.04" height="1.04"/>
				</g>
			</g>
		</g>
	</g>
	<g>
		<g>
			<rect y="170.14" class="st0" width="34.98" height="2.8"/>
			<rect x="34.85" y="167.34" class="st0" width="2.8" height="2.8"/>
			<rect x="37.65" y="167.34" class="st0" width="2.8" height="2.8"/>
			<rect x="37.65" y="164.53" class="st0" width="2.8" height="2.8"/>
			<rect x="40.46" y="164.53" class="st0" width="2.8" height="2.8"/>
			<rect x="104.67" y="170.14" class="st0" width="60.86" height="2.8"/>
			<rect x="101.87" y="177.91" class="st0" width="10.96" height="2.8"/>
			<rect x="36.38" y="177.91" class="st0" width="10.96" height="2.8"/>
			<rect x="193.94" y="185.51" class="st0" width="8.11" height="2.8"/>
			<rect x="179.1" y="180.35" class="st0" width="5.31" height="2.8"/>
			<rect x="169.29" y="185.51" class="st0" width="2.8" height="2.8"/>
			<rect x="289.42" y="177.89" class="st0" width="7.86" height="2.8"/>
			<rect x="261.69" y="180.35" class="st0" width="2.8" height="2.8"/>
			<rect x="301.52" y="183.16" class="st0" width="2.8" height="2.8"/>
			<rect x="339.15" y="180.69" class="st0" width="2.8" height="2.8"/>
			<rect x="389.1" y="185.68" class="st0" width="5.54" height="2.8"/>
			<rect x="473.62" y="188.49" class="st0" width="10.19" height="2.8"/>
			<rect x="488.57" y="180.5" class="st0" width="10.19" height="2.8"/>
			<rect x="610.21" y="177.7" class="st0" width="7.9" height="2.8"/>
			<rect x="428.68" y="185.68" class="st0" width="7.56" height="2.8"/>
			<rect x="378.4" y="185.68" class="st0" width="2.8" height="2.8"/>
			<rect x="470.81" y="182.88" class="st0" width="2.8" height="2.8"/>
			<rect x="575.04" y="185.68" class="st0" width="2.8" height="2.8"/>
			<rect x="684.95" y="180.5" class="st0" width="2.8" height="2.8"/>
			<rect x="508.19" y="188.06" class="st0" width="5.52" height="2.8"/>
			<rect x="597.72" y="188.06" class="st0" width="5.52" height="2.8"/>
			<rect x="648" y="185.68" class="st0" width="5.52" height="2.8"/>
			<rect x="697.4" y="185.68" class="st0" width="11" height="2.8"/>
			<rect x="66.87" y="185.34" class="st0" width="6.31" height="2.8"/>
			<rect x="70.66" y="177.91" class="st0" width="7.83" height="2.8"/>
			<rect x="29.5" y="188.15" class="st0" width="2.8" height="2.8"/>
			<rect x="156.78" y="170.14" class="st0" width="381.73" height="2.8"/>
			<rect x="556.1" y="170.14" class="st0" width="154.87" height="2.8"/>
		</g>
		<g>
			<g>
				<g>
					<rect x="105.56" y="28.47" class="st2" width="2.12" height="2.12"/>
					<rect x="83.51" y="30.59" class="st2" width="4.16" height="2.12"/>
					<rect x="96.21" y="23.2" class="st2" width="2.12" height="2.12"/>
					<rect x="94.09" y="25.17" class="st2" width="2.12" height="5.42"/>
					<rect x="98.34" y="21.08" class="st2" width="2.12" height="2.12"/>
					<rect x="194.9" y="28.47" class="st2" width="2.12" height="2.12"/>
					<rect x="160.32" y="13.26" class="st2" width="2.12" height="2.12"/>
					<rect x="158.2" y="15.39" class="st2" width="2.12" height="2.12"/>
					<rect x="132.55" y="4.27" class="st2" width="2.12" height="2.12"/>
					<rect x="98.34" y="18.95" class="st2" width="19.13" height="2.12"/>
					<rect x="85.55" y="28.47" class="st2" width="8.54" height="2.12"/>
					<rect x="115.35" y="16.83" class="st2" width="4.23" height="2.12"/>
					<rect x="125.26" y="6.85" class="st2" width="5.16" height="2.12"/>
					<rect x="117.45" y="14.71" class="st2" width="7.81" height="2.12"/>
					<rect x="130.42" y="5.12" class="st2" width="2.12" height="3.85"/>
					<rect x="125.26" y="8.97" class="st2" width="2.12" height="7.86"/>
					<rect x="132.55" y="2.12" class="st2" width="13.78" height="2.12"/>
					<rect x="146.33" class="st2" width="5.52" height="2.12"/>
					<rect x="151.85" y="2.67" class="st2" width="4.23" height="2.12"/>
					<rect x="158.2" y="5.87" class="st2" width="2.12" height="2.12"/>
					<rect x="156.08" y="2.67" class="st2" width="2.12" height="5.33"/>
					<rect x="151.85" class="st2" width="2.12" height="4.79"/>
					<rect x="187.44" y="18.27" class="st2" width="2.12" height="5.27"/>
					<rect x="179.91" y="13.01" class="st2" width="2.12" height="5.27"/>
					<rect x="160.32" y="5.87" class="st2" width="2.12" height="5.27"/>
					<rect x="167.56" y="11.14" class="st2" width="2.12" height="3.99"/>
					<rect x="187.44" y="23.54" class="st2" width="5.33" height="2.12"/>
					<rect x="179.91" y="18.27" class="st2" width="8.59" height="2.12"/>
					<rect x="167.56" y="13.01" class="st2" width="12.35" height="2.12"/>
					<rect x="160.32" y="11.14" class="st2" width="9.36" height="2.12"/>
					<rect x="192.77" y="23.54" class="st2" width="2.12" height="4.93"/>
					<rect x="107.7" y="30.59" class="st2" width="89.32" height="2.12"/>
				</g>
			</g>
			<g>
				<g>
					<rect x="535.99" y="28.47" class="st2" width="2.12" height="2.12"/>
					<rect x="513.95" y="30.59" class="st2" width="4.16" height="2.12"/>
					<rect x="526.65" y="23.2" class="st2" width="2.12" height="2.12"/>
					<rect x="524.52" y="25.17" class="st2" width="2.12" height="5.42"/>
					<rect x="528.77" y="21.08" class="st2" width="2.12" height="2.12"/>
					<rect x="625.33" y="28.47" class="st2" width="2.12" height="2.12"/>
					<rect x="590.76" y="13.26" class="st2" width="2.12" height="2.12"/>
					<rect x="588.64" y="15.39" class="st2" width="2.12" height="2.12"/>
					<rect x="562.98" y="4.27" class="st2" width="2.12" height="2.12"/>
					<rect x="528.77" y="18.95" class="st2" width="19.13" height="2.12"/>
					<rect x="515.99" y="28.47" class="st2" width="8.54" height="2.12"/>
					<rect x="545.78" y="16.83" class="st2" width="4.23" height="2.12"/>
					<rect x="555.7" y="6.85" class="st2" width="5.16" height="2.12"/>
					<rect x="547.88" y="14.71" class="st2" width="7.81" height="2.12"/>
					<rect x="560.86" y="5.12" class="st2" width="2.12" height="3.85"/>
					<rect x="555.7" y="8.97" class="st2" width="2.12" height="7.86"/>
					<rect x="562.98" y="2.12" class="st2" width="13.78" height="2.12"/>
					<rect x="576.76" class="st2" width="5.52" height="2.12"/>
					<rect x="582.29" y="2.67" class="st2" width="4.23" height="2.12"/>
					<rect x="588.64" y="5.87" class="st2" width="2.12" height="2.12"/>
					<rect x="586.51" y="2.67" class="st2" width="2.12" height="5.33"/>
					<rect x="582.29" class="st2" width="2.12" height="4.79"/>
					<rect x="617.88" y="18.27" class="st2" width="2.12" height="5.27"/>
					<rect x="610.35" y="13.01" class="st2" width="2.12" height="5.27"/>
					<rect x="590.76" y="5.87" class="st2" width="2.12" height="5.27"/>
					<rect x="598" y="11.14" class="st2" width="2.12" height="3.99"/>
					<rect x="617.88" y="23.54" class="st2" width="5.33" height="2.12"/>
					<rect x="610.35" y="18.27" class="st2" width="8.59" height="2.12"/>
					<rect x="598" y="13.01" class="st2" width="12.35" height="2.12"/>
					<rect x="590.76" y="11.14" class="st2" width="9.36" height="2.12"/>
					<rect x="623.21" y="23.54" class="st2" width="2.12" height="4.93"/>
					<rect x="538.14" y="30.59" class="st2" width="89.32" height="2.12"/>
				</g>
			</g>
		</g>
		<g>
			<g>
				<rect x="320.77" y="86.94" class="st2" width="2.12" height="2.12"/>
				<rect x="298.73" y="89.06" class="st2" width="4.16" height="2.12"/>
				<rect x="311.43" y="81.67" class="st2" width="2.12" height="2.12"/>
				<rect x="309.31" y="83.65" class="st2" width="2.12" height="5.42"/>
				<rect x="313.55" y="79.55" class="st2" width="2.12" height="2.12"/>
				<rect x="410.11" y="86.94" class="st2" width="2.12" height="2.12"/>
				<rect x="375.54" y="71.73" class="st2" width="2.12" height="2.12"/>
				<rect x="373.42" y="73.86" class="st2" width="2.12" height="2.12"/>
				<rect x="347.76" y="62.74" class="st2" width="2.12" height="2.12"/>
				<rect x="313.55" y="77.43" class="st2" width="19.13" height="2.12"/>
				<rect x="300.77" y="86.94" class="st2" width="8.54" height="2.12"/>
				<rect x="330.56" y="75.3" class="st2" width="4.23" height="2.12"/>
				<rect x="340.48" y="65.32" class="st2" width="5.16" height="2.12"/>
				<rect x="332.67" y="73.18" class="st2" width="7.81" height="2.12"/>
				<rect x="345.64" y="63.59" class="st2" width="2.12" height="3.85"/>
				<rect x="340.48" y="67.44" class="st2" width="2.12" height="7.86"/>
				<rect x="347.76" y="60.6" class="st2" width="13.78" height="2.12"/>
				<rect x="361.55" y="58.47" class="st2" width="5.52" height="2.12"/>
				<rect x="367.07" y="61.14" class="st2" width="4.23" height="2.12"/>
				<rect x="373.42" y="64.34" class="st2" width="2.12" height="2.12"/>
				<rect x="371.29" y="61.14" class="st2" width="2.12" height="5.33"/>
				<rect x="367.07" y="58.47" class="st2" width="2.12" height="4.79"/>
				<rect x="402.66" y="76.75" class="st2" width="2.12" height="5.27"/>
				<rect x="395.13" y="71.48" class="st2" width="2.12" height="5.27"/>
				<rect x="375.54" y="64.34" class="st2" width="2.12" height="5.27"/>
				<rect x="382.78" y="69.61" class="st2" width="2.12" height="3.99"/>
				<rect x="402.66" y="82.01" class="st2" width="5.33" height="2.12"/>
				<rect x="395.13" y="76.75" class="st2" width="8.59" height="2.12"/>
				<rect x="382.78" y="71.48" class="st2" width="12.35" height="2.12"/>
				<rect x="375.54" y="69.61" class="st2" width="9.36" height="2.12"/>
				<rect x="407.99" y="82.01" class="st2" width="2.12" height="4.93"/>
				<rect x="322.92" y="89.06" class="st2" width="89.32" height="2.12"/>
			</g>
		</g>
		<rect x="78.49" y="174" class="st0" width="23.49" height="3.92"/>
		<rect x="94.16" y="162.25" class="st0" width="3.9" height="12.55"/>
		<rect x="94.16" y="162.25" class="st0" width="7.83" height="3.92"/>
		<rect x="47.14" y="162.25" class="st0" width="7.83" height="3.92"/>
		<rect x="101.99" y="158.34" class="st0" width="7.83" height="3.92"/>
		<rect x="105.9" y="154.42" class="st0" width="7.83" height="3.92"/>
		<rect x="109.82" y="150.51" class="st0" width="11.75" height="3.92"/>
		<rect x="117.65" y="134.85" class="st0" width="3.92" height="15.93"/>
		<rect x="109.82" y="134.85" class="st0" width="11.75" height="3.92"/>
		<rect x="109.82" y="130.65" class="st0" width="3.9" height="5.95"/>
		<rect x="105.9" y="123.1" class="st0" width="3.9" height="7.83"/>
		<rect x="98.07" y="103.52" class="st0" width="3.9" height="19.58"/>
		<rect x="101.66" y="119.19" class="st0" width="4.24" height="3.92"/>
		<rect x="94.16" y="103.52" class="st0" width="4.6" height="3.91"/>
		<rect x="90.24" y="107.44" class="st0" width="3.92" height="3.92"/>
		<rect x="86.32" y="111.35" class="st0" width="3.92" height="3.92"/>
		<rect x="82.41" y="111.35" class="st0" width="3.92" height="3.92"/>
		<rect x="55" y="111.35" class="st0" width="27.41" height="3.92"/>
		<rect x="47.17" y="115.27" class="st0" width="7.83" height="3.92"/>
		<rect x="43.26" y="119.19" class="st0" width="3.92" height="3.92"/>
		<rect x="39.34" y="123.1" class="st0" width="3.92" height="27.41"/>
		<rect x="35.43" y="134.85" class="st0" width="3.92" height="3.92"/>
		<rect x="31.51" y="130.93" class="st0" width="3.92" height="3.92"/>
		<rect x="27.6" y="134.85" class="st0" width="3.92" height="7.83"/>
		<rect x="31.51" y="142.68" class="st0" width="3.92" height="3.92"/>
		<rect x="43.26" y="150.51" class="st0" width="3.92" height="3.92"/>
		<rect x="62.83" y="162.25" class="st0" width="7.83" height="3.92"/>
		<rect x="70.66" y="162.25" class="st0" width="15.66" height="3.92"/>
		<rect x="47.14" y="154.42" class="st0" width="3.95" height="11.75"/>
		<rect x="51.05" y="166.17" class="st0" width="3.92" height="11.75"/>
		<rect x="82.41" y="166.17" class="st0" width="3.92" height="11.01"/>
		<rect x="62.83" y="162.25" class="st0" width="3.92" height="11.75"/>
		
			<rect x="56.96" y="164.21" transform="matrix(-1.836970e-16 1 -1 -1.836970e-16 234.8733 117.0354)" class="st0" width="3.92" height="23.49"/>
		<polygon class="st0" points="52.3,174.8 52.3,164.21 50.18,163.09 48.48,155.27 45.22,153.28 42.2,148.99 41.3,142.87 
			40.92,128.97 41.56,124.82 44.36,121.85 49.5,116.97 53.75,116.97 55.77,114.25 88.28,114.25 89.38,111.98 89.64,111.98 
			90.73,110.83 94.53,107.06 98.34,104.49 100.79,109.68 99.62,116.85 102.93,121.44 105.54,122.68 106.84,124.13 108.43,129.83 
			111.33,131.58 113.36,137.31 117.33,137.82 118.98,138.63 118.64,151.83 113.42,153.11 111.59,154.51 111.17,156.38 107.85,157.7 
			106.2,161.09 102.89,161.48 101.17,162.98 98.87,164.68 96.73,166.25 96.73,176.64 83.77,176.64 83.77,171.67 83.77,164.45 
			64.79,164.45 64.79,175.41 		"/>
		<rect x="98.07" y="130.93" class="st1" width="3.9" height="3.9"/>
		<rect x="47.17" y="127.02" class="st1" width="3.92" height="3.92"/>
		<rect x="61.19" y="118.81" class="st1" width="3.92" height="3.92"/>
		<rect x="72.94" y="118.81" class="st1" width="3.92" height="3.92"/>
		<rect x="65.11" y="117.23" class="st1" width="7.83" height="3.92"/>
		<rect x="51.05" y="146.59" class="st1" width="3.92" height="3.92"/>
		<rect x="47.17" y="134.85" class="st1" width="3.92" height="11.75"/>
	</g>
</g>
<g>
</g>
<g>
</g>
<g>
</g>
<g>
</g>
<g>
</g>
<g>
</g>
<g>
</g>
<g>
</g>
<g>
</g>
<g>
</g>
<g>
</g>
<g>
</g>
<g>
</g>
<g>
</g>
<g>
</g>
</svg>
