<svg width="75" height="101" viewBox="0 0 75 101" fill="none" xmlns="http://www.w3.org/2000/svg">
<path d="M37.5257 59.3735C49.6978 59.3735 59.5652 49.5422 59.5652 37.4148C59.5652 25.2873 49.6978 15.4561 37.5257 15.4561C25.3535 15.4561 15.4861 25.2873 15.4861 37.4148C15.4861 49.5422 25.3535 59.3735 37.5257 59.3735Z" fill="#00E3C2"/>
<path d="M22.0064 50.9209C22.0957 50.2535 21.9171 49.6083 21.4928 49.0744C15.4191 41.2876 16.2006 30.4529 23.3909 23.289C29.5092 17.1931 38.7538 15.7025 46.5023 19.5959C47.1052 19.9073 47.775 19.9518 48.4003 19.7294C49.0255 19.5291 49.5614 19.0842 49.8517 18.4835C50.142 17.8828 50.209 17.2153 49.9857 16.5924C49.7847 15.9695 49.3381 15.4355 48.7352 15.1463C39.0887 10.2962 27.4772 12.1428 19.8181 19.7739C10.8192 28.7398 9.85896 42.3332 17.5181 52.1446C17.987 52.7453 18.7239 53.1012 19.4831 53.1012C20.0414 53.1012 20.5773 52.9233 21.0239 52.5673C21.5821 52.1668 21.9394 51.5884 22.0064 50.9209Z" fill="#060F26"/>
<path d="M56.4391 25.0454C55.2109 25.6684 54.7196 27.159 55.3449 28.3826C59.2303 36.0582 57.7565 45.3133 51.6382 51.4092C44.5372 58.4841 33.1937 59.196 25.2889 53.0556C24.1947 52.2102 22.6316 52.4104 21.7831 53.5005C21.3811 54.0345 21.2025 54.6797 21.2695 55.3471C21.3588 56.0146 21.6938 56.593 22.2073 56.9935C26.6063 60.4196 31.8985 62.2217 37.5033 62.2217C44.18 62.2217 50.4546 59.641 55.1662 54.9467C62.8031 47.3379 64.6788 35.7689 59.8109 26.1578C59.1633 24.9119 57.7119 24.4002 56.4391 25.0454Z" fill="#060F26"/>
<path d="M51.7274 23.4L51.8613 23.5112C51.8837 23.5335 51.906 23.5557 52.04 23.7115C52.5089 24.2454 53.2011 24.5569 53.9157 24.5569C54.5186 24.5569 55.1215 24.3344 55.5681 23.9339C56.0594 23.489 56.372 22.8883 56.4166 22.2209C56.4613 21.5534 56.238 20.9082 55.7914 20.4188C55.4565 20.0406 55.3671 19.9516 55.0099 19.5734C54.8982 19.4621 54.7865 19.3509 54.6526 19.2841C54.6302 19.2619 54.6079 19.2396 54.5633 19.2174C54.072 18.7724 53.4244 18.55 52.7545 18.5945C52.0847 18.639 51.4817 18.9282 51.0351 19.4399C50.5885 19.9293 50.3652 20.5745 50.4099 21.242C50.4546 21.9094 50.7448 22.5101 51.2584 22.955C51.5264 23.1998 51.6604 23.3333 51.7274 23.4Z" fill="#060F26"/>
<path d="M74.2136 36.6145C75.5088 34.5232 75.1738 31.8535 73.4321 30.1404L69.0778 25.8688C69.0331 25.8243 69.0331 25.7798 69.0331 25.7353L69.4574 19.6393C69.636 17.1698 68.0953 14.9673 65.7283 14.2554L59.9225 12.52C59.8778 12.4978 59.8332 12.4755 59.8108 12.431L57.3992 6.86905C56.4167 4.622 53.9604 3.35388 51.5711 3.82108L45.6537 4.97798C45.6091 4.97798 45.5644 4.97797 45.5197 4.93348L40.8081 1.15133C38.8878 -0.383777 36.1189 -0.383777 34.1985 1.15133L29.4869 4.93348C29.4422 4.95573 29.3976 4.97798 29.3529 4.97798L23.4355 3.82108C21.0239 3.35388 18.5899 4.64425 17.6074 6.86905L15.1735 12.431C15.1511 12.4755 15.1065 12.52 15.0618 12.52L9.27837 14.2554C6.9114 14.9673 5.37064 17.1698 5.54928 19.6393L5.97352 25.7353C5.97352 25.7798 5.95122 25.8465 5.92889 25.8688L1.57453 30.1404C-0.189525 31.8535 -0.502123 34.5232 0.793009 36.6145L4.00852 41.7983C4.03085 41.8428 4.03083 41.8873 4.03083 41.9318L2.15513 47.7385C1.39592 50.0745 2.35609 52.5885 4.47742 53.8344L9.70261 56.9269C9.74727 56.9491 9.76962 56.9936 9.79195 57.0381L10.8191 63.045C11.2434 65.4923 13.2531 67.2721 15.7317 67.3834L21.7608 67.6726C21.8054 67.6726 21.8501 67.6949 21.8947 67.7394L23.2122 69.4747V98.4637C23.2122 99.4204 23.7704 100.31 24.6413 100.733C25.5122 101.156 26.5617 101.045 27.3209 100.466L37.5256 92.6348L47.7304 100.466C48.177 100.8 48.7129 101 49.2935 101C49.6731 101 50.075 100.911 50.41 100.733C51.2809 100.31 51.8391 99.4204 51.8391 98.4637V71.9887C52.1517 71.4103 53.4692 68.9185 54.0721 67.8951C54.1614 67.7616 54.2284 67.7394 54.273 67.7394L59.3196 67.4279C61.7982 67.2944 63.8302 65.5146 64.2322 63.0895L65.2593 57.0826C65.2593 57.0381 65.304 56.9936 65.3487 56.9714L70.5739 53.8789C72.6952 52.633 73.6554 50.119 72.8962 47.783L71.0205 41.9763C70.9981 41.9318 71.0204 41.8873 71.0428 41.8428L74.2136 36.6145ZM66.1526 43.4891L68.0283 49.2958C68.0506 49.3848 68.0283 49.4516 67.9613 49.4961L62.7361 52.5885C61.4186 53.3672 60.5031 54.7021 60.2351 56.2149L59.208 62.2219C59.1856 62.3109 59.1186 62.3554 59.0516 62.3776L53.0226 62.6668C51.4595 62.7336 50.0304 63.49 49.0925 64.7359L45.4304 69.5414C45.3857 69.6082 45.2964 69.6304 45.2071 69.5859L39.7363 67.0497C38.3295 66.3822 36.6994 66.4045 35.2927 67.0497L29.8218 69.5859C29.7549 69.6082 29.6655 69.6082 29.5985 69.5414L28.1024 67.5836C27.9238 67.1387 27.6335 66.7605 27.2539 66.4712L25.9141 64.7136C24.9763 63.49 23.5471 62.7336 21.984 62.6446L15.955 62.3554C15.8657 62.3554 15.7987 62.2886 15.7987 62.2219L14.7715 56.2149C14.5035 54.7021 13.6104 53.3895 12.2706 52.5885L7.04538 49.4961C6.97839 49.4516 6.93373 49.3626 6.97839 49.2958L8.8541 43.4891C9.32302 42.0208 9.12204 40.4412 8.31817 39.1508L5.10266 33.967C5.058 33.9003 5.05802 33.8113 5.12501 33.7445L9.47933 29.4729C10.5735 28.405 11.1317 26.8922 11.0424 25.3793L10.5958 19.2834C10.5958 19.1944 10.6405 19.1277 10.7298 19.1054L16.5132 17.3701C17.987 16.9251 19.1928 15.8572 19.8181 14.4333L22.252 8.87136C22.2743 8.80462 22.386 8.78236 22.453 8.76012L28.3704 9.91701C29.8888 10.2062 31.4743 9.82802 32.6801 8.84911L37.3917 5.06696C37.4587 5.02246 37.548 5.02246 37.6149 5.06696L42.3266 8.84911C43.5324 9.82802 45.1178 10.2062 46.6362 9.91701L52.5536 8.76012C52.643 8.73787 52.71 8.78237 52.7546 8.87136L55.1662 14.4333C55.7915 15.8572 56.9973 16.9251 58.4711 17.3701L64.2768 19.1054C64.3661 19.1277 64.4108 19.1944 64.4108 19.2834L63.9866 25.3793C63.8749 26.9144 64.4332 28.405 65.5496 29.4729L69.8816 33.7445C69.9486 33.8113 69.9486 33.9003 69.904 33.967L66.6885 39.1508C65.8846 40.4412 65.6836 42.0208 66.1526 43.4891ZM37.5256 82.7122C36.1189 82.7122 34.98 83.8469 34.98 85.2485V88.2297L28.3034 93.3467V74.436C29.5315 74.792 30.849 74.6807 31.9655 74.1468L37.4363 71.6105C37.481 71.5882 37.5256 71.5882 37.5926 71.6105L43.0634 74.1468C44.2246 74.6807 45.5197 74.7697 46.7255 74.436V93.3467L40.0489 88.2297V85.2262C40.0713 83.8469 38.9324 82.7122 37.5256 82.7122Z" fill="#060F26"/>
<path d="M39.312 75.7487C38.3741 74.8142 36.6771 74.8142 35.7169 75.7487C35.2479 76.2159 34.98 76.8611 34.98 77.5285C34.98 78.1959 35.2479 78.8411 35.7169 79.3083C36.1858 79.7755 36.8334 80.0425 37.5033 80.0425C38.1732 80.0425 38.8207 79.7755 39.2896 79.3083C39.7586 78.8411 40.0265 78.1959 40.0265 77.5285C40.0712 76.8611 39.8032 76.2159 39.312 75.7487Z" fill="#060F26"/>
<path d="M45.9216 28.8955L34.1315 40.6424L29.1296 35.6589C28.1471 34.6799 26.5617 34.6799 25.6015 35.6589C24.619 36.6378 24.619 38.2174 25.6015 39.174L32.3898 45.9374C32.8587 46.4046 33.4839 46.6716 34.1538 46.6716C34.8237 46.6716 35.449 46.4046 35.9179 45.9374L49.4721 32.4329C50.4546 31.454 50.4546 29.8744 49.4721 28.9177C48.4896 27.9166 46.9041 27.9166 45.9216 28.8955Z" fill="#060F26"/>
</svg>
