<svg width="154" height="78" viewBox="0 0 154 78" fill="none" xmlns="http://www.w3.org/2000/svg">
<path d="M151.312 77.9359C151.37 77.9244 151.426 77.9088 151.483 77.8941C151.532 77.8816 151.581 77.8714 151.628 77.8567C151.684 77.8398 151.738 77.8189 151.793 77.7993C151.841 77.782 151.889 77.7664 151.937 77.7464C151.988 77.725 152.038 77.7001 152.087 77.6766C152.136 77.6534 152.185 77.632 152.233 77.6062C152.281 77.5809 152.326 77.552 152.372 77.5244C152.42 77.4959 152.468 77.4692 152.514 77.4381C152.563 77.4051 152.609 77.3687 152.657 77.3331C152.697 77.3033 152.738 77.2752 152.777 77.2432C152.849 77.184 152.918 77.1208 152.985 77.0559C152.997 77.0443 153.01 77.0345 153.022 77.0225C153.034 77.0101 153.045 76.9963 153.057 76.9834C153.121 76.9175 153.183 76.8499 153.242 76.7787C153.276 76.7369 153.306 76.6933 153.338 76.6501C153.371 76.6056 153.406 76.5625 153.437 76.5162C153.47 76.4668 153.499 76.4156 153.529 76.3649C153.554 76.3222 153.581 76.2804 153.605 76.2363C153.633 76.1852 153.656 76.1322 153.68 76.0802C153.702 76.0339 153.725 75.9881 153.745 75.9405C153.767 75.8893 153.784 75.8372 153.802 75.7852C153.821 75.7345 153.84 75.6842 153.856 75.6326C153.872 75.5801 153.883 75.5267 153.897 75.4733C153.91 75.4208 153.925 75.3692 153.935 75.3163C153.947 75.2535 153.955 75.1903 153.964 75.1272C153.97 75.0827 153.979 75.0386 153.983 74.9937C153.994 74.8829 154 74.7721 154 74.6609V3.33689C154 1.49359 152.505 0 150.66 0H45.4584C45.429 0 45.4005 0.0035569 45.3711 0.00444674C45.3075 0.00622642 45.2442 0.00889734 45.181 0.0142364C45.1307 0.0182406 45.0808 0.0240257 45.0309 0.0306995C44.9739 0.0378182 44.9174 0.046271 44.8608 0.0565042C44.8078 0.0658475 44.7553 0.0769695 44.7032 0.0889824C44.6502 0.10144 44.5972 0.114789 44.5447 0.129916C44.4926 0.144598 44.4414 0.160613 44.3906 0.17752C44.3385 0.195317 44.2864 0.214006 44.2352 0.234472C44.1866 0.253604 44.139 0.273178 44.0918 0.294534C44.0392 0.318114 43.9871 0.343478 43.9355 0.369728C43.8914 0.392419 43.8482 0.415553 43.8055 0.440024C43.7538 0.469388 43.703 0.500533 43.6527 0.532567C43.6113 0.559262 43.5708 0.586846 43.5307 0.614876C43.4835 0.648245 43.4368 0.682949 43.3909 0.719432C43.349 0.752801 43.3081 0.787061 43.2675 0.822209C43.2275 0.857358 43.1878 0.892505 43.1491 0.929878C43.105 0.972145 43.0627 1.01619 43.0208 1.06068C42.9999 1.08293 42.9777 1.10251 42.9576 1.1252C42.9456 1.13855 42.9362 1.15323 42.9247 1.16658C42.8828 1.21507 42.8436 1.26579 42.8044 1.31696C42.7759 1.35433 42.7465 1.3917 42.7198 1.42997C42.6851 1.4798 42.653 1.53096 42.621 1.58257C42.5947 1.62484 42.5675 1.66666 42.5435 1.70982C42.5154 1.75965 42.4909 1.81082 42.4656 1.86198C42.4424 1.9087 42.4184 1.95542 42.3974 2.00302C42.3756 2.0533 42.3565 2.10535 42.3373 2.15652C42.3182 2.2068 42.2986 2.25663 42.2821 2.30735C42.2656 2.35851 42.2523 2.41057 42.238 2.46262C42.2238 2.51601 42.2086 2.56896 42.1966 2.62279C42.1855 2.67307 42.1779 2.72424 42.169 2.77496C42.1592 2.8328 42.1494 2.89064 42.1423 2.94847C42.1365 2.99653 42.1338 3.04546 42.1303 3.09441C42.1258 3.15669 42.1218 3.21899 42.1209 3.28172C42.1205 3.29996 42.1182 3.31776 42.1182 3.336V23.9144C42.1182 25.7577 43.6131 27.2513 45.458 27.2513C47.3028 27.2513 48.7977 25.7577 48.7977 23.9144V10.747L78.4907 37.0137C78.3357 37.1227 78.1866 37.2432 78.0476 37.3816L48.7973 66.607V44.6778C48.7973 42.8345 47.3024 41.3409 45.4575 41.3409C43.6127 41.3409 42.1178 42.8345 42.1178 44.6778V48.7551H24.8624C23.0176 48.7551 21.5227 50.2487 21.5227 52.0919C21.5227 53.9352 23.0176 55.4288 24.8624 55.4288H42.1178V74.6631C42.1178 76.5064 43.6127 78 45.4575 78H150.659C150.769 78 150.879 77.9942 150.989 77.9835C151.04 77.9786 151.09 77.9689 151.14 77.9617C151.198 77.9537 151.255 77.9471 151.312 77.9359ZM147.32 66.6074L118.069 37.3821C118.051 37.3634 118.031 37.3478 118.011 37.33L140.002 18.6892C141.408 17.4969 141.581 15.3915 140.387 13.986C139.195 12.5814 137.088 12.4079 135.68 13.6007L98.1052 45.4524L54.2682 6.67422H147.32V66.6074ZM82.7714 42.1017C83.0096 41.8637 83.2028 41.5985 83.3538 41.3165L95.8449 52.366C96.4763 52.9244 97.2672 53.2047 98.0589 53.2047C98.8275 53.2047 99.5956 52.9409 100.22 52.4123L112.95 41.6212C113.065 41.7903 113.196 41.9518 113.346 42.1017L142.596 71.3271H53.521L82.7714 42.1017Z" fill="#060F26"/>
<path d="M3.33974 38.0032H59.7444C61.5893 38.0032 63.0842 36.5096 63.0842 34.6663C63.0842 32.823 61.5893 31.3294 59.7444 31.3294H3.33974C1.49487 31.3294 0 32.823 0 34.6663C0 36.5096 1.49487 38.0032 3.33974 38.0032Z" fill="#5BE2C4"/>
<path d="M9.18423 19.6142H34.5106C36.3555 19.6142 37.8503 18.1206 37.8503 16.2773C37.8503 14.434 36.3555 12.9404 34.5106 12.9404H9.18423C7.33935 12.9404 5.84448 14.434 5.84448 16.2773C5.84448 18.1206 7.33935 19.6142 9.18423 19.6142Z" fill="#5BE2C4"/>
<path d="M27.8312 62.8448H3.33974C1.49487 62.8448 0 64.3384 0 66.1817C0 68.025 1.49487 69.5186 3.33974 69.5186H27.8312C29.6761 69.5186 31.1709 68.025 31.1709 66.1817C31.1709 64.3384 29.6761 62.8448 27.8312 62.8448Z" fill="#5BE2C4"/>
</svg>
