<svg width="154" height="78" viewBox="0 0 154 78" fill="none" xmlns="http://www.w3.org/2000/svg">
<path d="M38.2559 2.36328H113.541L77.9891 35.7295L73.836 36.489L38.2559 2.36328Z" fill="#00E3C2"/>
<path d="M115.181 64.4621C122.236 64.4621 127.956 58.7428 127.956 51.6876C127.956 44.6325 122.236 38.9132 115.181 38.9132C108.126 38.9132 102.407 44.6325 102.407 51.6876C102.407 58.7428 108.126 64.4621 115.181 64.4621Z" fill="#00E3C2"/>
<path d="M118.078 36.7638V5.57114C118.078 4.79891 117.917 4.03514 117.605 3.32893C117.292 2.62272 116.836 1.98969 116.264 1.47055C115.918 1.14571 115.526 0.873469 115.101 0.662557C114.304 0.233754 113.415 0.0062872 112.511 0L38.4298 0C37.5354 0.00978523 36.6566 0.235712 35.8684 0.658517C35.4527 0.887421 35.0615 1.15816 34.7009 1.46651C34.1274 1.98489 33.6686 2.61749 33.3541 3.32368C33.0397 4.02988 32.8764 4.79405 32.8748 5.5671V17.6022H19.7408C19.2075 17.6258 18.7038 17.8542 18.3348 18.2399C17.9657 18.6256 17.7598 19.1389 17.7598 19.6727C17.7598 20.2065 17.9657 20.7198 18.3348 21.1055C18.7038 21.4912 19.2075 21.7196 19.7408 21.7432H41.1527C41.686 21.7196 42.1897 21.4912 42.5587 21.1055C42.9278 20.7198 43.1337 20.2065 43.1337 19.6727C43.1337 19.1389 42.9278 18.6256 42.5587 18.2399C42.1897 17.8542 41.686 17.6258 41.1527 17.6022H36.9956V5.98725L61.1951 27.8032L36.9956 52.9238V40.719H41.8961C42.4447 40.719 42.9708 40.5011 43.3587 40.1131C43.7466 39.7252 43.9645 39.1991 43.9645 38.6505C43.9645 38.1019 43.7466 37.5758 43.3587 37.1879C42.9708 36.8 42.4447 36.582 41.8961 36.582H23.9303C23.3817 36.582 22.8555 36.8 22.4676 37.1879C22.0797 37.5758 21.8618 38.1019 21.8618 38.6505C21.8618 39.1991 22.0797 39.7252 22.4676 40.1131C22.8555 40.5011 23.3817 40.719 23.9303 40.719H32.8586V53.7318C32.8617 54.5541 33.0478 55.3654 33.4035 56.1068C33.7592 56.8483 34.2755 57.5012 34.915 58.0182C34.915 58.0182 34.9392 58.0182 34.9473 58.0424C35.9283 58.8442 37.1547 59.2849 38.4217 59.2908H102.888C103.302 59.9116 103.756 60.5041 104.249 61.0643C106.475 63.5611 109.484 65.2262 112.781 65.7857C116.079 66.3452 119.468 65.7658 122.393 64.1428C122.595 64.0345 122.773 63.887 122.918 63.709C123.063 63.531 123.17 63.326 123.235 63.106C123.299 62.8859 123.32 62.6552 123.294 62.4273C123.269 62.1994 123.198 61.9788 123.087 61.7784C122.975 61.578 122.825 61.4017 122.645 61.2599C122.465 61.1181 122.258 61.0136 122.037 60.9524C121.816 60.8912 121.585 60.8746 121.358 60.9035C121.13 60.9325 120.911 61.0063 120.712 61.1209C118.484 62.351 115.906 62.7924 113.396 62.3736C110.885 61.9547 108.59 60.7001 106.882 58.8132C105.175 56.9263 104.154 54.5178 103.987 51.9783C103.82 49.4388 104.515 46.9173 105.96 44.8226C107.406 42.7279 109.517 41.1829 111.95 40.4383C114.384 39.6936 116.998 39.7929 119.368 40.72C121.738 41.6471 123.725 43.3477 125.008 45.546C126.29 47.7443 126.792 50.3114 126.433 52.8309C126.401 53.0553 126.413 53.2838 126.47 53.5034C126.526 53.7229 126.625 53.9292 126.762 54.1105C126.898 54.2917 127.068 54.4443 127.264 54.5595C127.459 54.6748 127.675 54.7505 127.899 54.7822C128.124 54.8175 128.354 54.8074 128.575 54.7523C128.796 54.6973 129.004 54.5985 129.187 54.4618C129.369 54.3251 129.522 54.1532 129.637 53.9564C129.751 53.7595 129.825 53.5416 129.855 53.3157C129.952 52.6223 130 51.923 130 51.2229C129.988 47.8068 128.794 44.5 126.621 41.8643C124.448 39.2285 121.429 37.4263 118.078 36.7638ZM41.1204 4.13694H109.8L85.334 26.2276L77.9973 32.8491C77.3062 33.5192 76.3775 33.8879 75.4149 33.8742C74.4523 33.8606 73.5344 33.4658 72.8625 32.7764L41.1204 4.13694ZM103.587 42.1774L103.259 41.834C103.071 41.6385 102.845 41.4821 102.596 41.3736C102.347 41.2652 102.079 41.2069 101.808 41.202C101.536 41.1971 101.266 41.2458 101.013 41.3452C100.761 41.4446 100.53 41.5929 100.334 41.7815C100.139 41.9701 99.9825 42.1954 99.874 42.4444C99.7656 42.6935 99.7073 42.9615 99.7024 43.2331C99.6975 43.5047 99.7462 43.7746 99.8456 44.0274C99.945 44.2802 100.093 44.5109 100.282 44.7064L101.458 45.9184C100.314 48.8686 100.153 52.1087 100.997 55.1579H40.5669L64.2695 30.5948L70.0103 35.774C70.7252 36.4906 71.5748 37.0586 72.5101 37.4455C73.4454 37.8324 74.4481 38.0305 75.4602 38.0284C77.4703 38.0431 79.404 37.2599 80.8375 35.8508L86.6591 30.5988L95.143 39.3818C95.5239 39.7771 96.0463 40.005 96.5952 40.0152C97.1441 40.0254 97.6746 39.8172 98.07 39.4363C98.4654 39.0554 98.6932 38.533 98.7035 37.9841C98.7137 37.4352 98.5055 36.9047 98.1245 36.5093L89.7416 27.8234L113.941 6.00745V36.5457C112.73 36.6561 111.537 36.9097 110.386 37.3012C107.699 38.2413 105.339 39.9339 103.587 42.1774Z" fill="#060F26"/>
<path d="M127.171 56.8022C126.98 56.6801 126.767 56.5968 126.544 56.5571C126.321 56.5174 126.092 56.522 125.871 56.5708C125.649 56.6196 125.44 56.7115 125.254 56.8413C125.068 56.9711 124.91 57.1363 124.788 57.3274C124.606 57.6102 124.412 57.8809 124.21 58.1354C123.931 58.4992 123.808 58.9589 123.868 59.4135C123.928 59.868 124.166 60.2802 124.529 60.5594C124.893 60.8384 125.353 60.9615 125.807 60.9017C126.262 60.8418 126.674 60.6039 126.953 60.2402C127.22 59.8968 127.466 59.5453 127.701 59.1817C127.945 58.7956 128.026 58.3287 127.927 57.8828C127.828 57.437 127.556 57.0485 127.171 56.8022Z" fill="#284080"/>
<path d="M120.902 45.1347C120.673 45.1624 120.453 45.2353 120.253 45.3491C120.053 45.4628 119.878 45.6151 119.738 45.7972L113.52 53.8368C113.436 53.9564 113.343 54.0698 113.242 54.1762C113.135 54.0682 113.039 53.9505 112.955 53.8247L110.62 50.7947C110.479 50.613 110.304 50.4608 110.104 50.3468C109.904 50.2328 109.684 50.1593 109.456 50.1304C109.228 50.1015 108.996 50.1179 108.775 50.1785C108.553 50.2391 108.345 50.3427 108.163 50.4836C107.982 50.6245 107.83 50.7997 107.716 50.9994C107.602 51.1991 107.528 51.4192 107.499 51.6473C107.47 51.8754 107.487 52.107 107.547 52.3288C107.608 52.5505 107.712 52.7582 107.852 52.9399L112.01 58.3171C112.139 58.5253 112.317 58.6993 112.528 58.8244C112.739 58.9496 112.977 59.0222 113.222 59.0363C113.469 59.0162 113.708 58.9408 113.922 58.8156C114.136 58.6904 114.319 58.5187 114.458 58.3131L122.489 47.9425C122.708 47.668 122.839 47.3344 122.865 46.9847C122.892 46.635 122.814 46.2854 122.64 45.9809C122.466 45.6764 122.204 45.431 121.889 45.2766C121.575 45.1221 121.221 45.0657 120.873 45.1145L120.902 45.1347Z" fill="#284080"/>
<path d="M33.1982 29.1606C33.1982 28.889 33.1447 28.62 33.0408 28.3691C32.9368 28.1181 32.7845 27.8901 32.5924 27.698C32.4003 27.5059 32.1723 27.3536 31.9213 27.2496C31.6704 27.1457 31.4014 27.0922 31.1298 27.0922H9.71785C9.18454 27.1157 8.68089 27.3442 8.31185 27.7299C7.9428 28.1156 7.73682 28.6288 7.73682 29.1627C7.73682 29.6965 7.9428 30.2097 8.31185 30.5954C8.68089 30.9811 9.18454 31.2096 9.71785 31.2331H31.1298C31.6787 31.2321 32.2048 31.0133 32.5926 30.6247C32.9804 30.2361 33.1982 29.7096 33.1982 29.1606Z" fill="#284080"/>
<path d="M2.25171 27.0922H1.98103C1.44772 27.1157 0.944077 27.3442 0.57503 27.7299C0.205983 28.1156 0 28.6288 0 29.1627C0 29.6965 0.205983 30.2097 0.57503 30.5954C0.944077 30.9811 1.44772 31.2096 1.98103 31.2331H2.25171C2.78501 31.2096 3.28866 30.9811 3.65771 30.5954C4.02676 30.2097 4.23274 29.6965 4.23274 29.1627C4.23274 28.6288 4.02676 28.1156 3.65771 27.7299C3.28866 27.3442 2.78501 27.1157 2.25171 27.0922Z" fill="#284080"/>
<path d="M12.2266 21.7432H12.4933C13.0266 21.7196 13.5302 21.4912 13.8993 21.1054C14.2683 20.7197 14.4743 20.2065 14.4743 19.6727C14.4743 19.1388 14.2683 18.6256 13.8993 18.2399C13.5302 17.8542 13.0266 17.6257 12.4933 17.6022H12.2266C11.6933 17.6257 11.1897 17.8542 10.8206 18.2399C10.4516 18.6256 10.2456 19.1388 10.2456 19.6727C10.2456 20.2065 10.4516 20.7197 10.8206 21.1054C11.1897 21.4912 11.6933 21.7196 12.2266 21.7432Z" fill="#284080"/>
<path d="M15.046 36.582H14.7794C14.2308 36.582 13.7047 36.8 13.3168 37.1879C12.9289 37.5758 12.7109 38.1019 12.7109 38.6505C12.7109 39.1991 12.9289 39.7252 13.3168 40.1131C13.7047 40.501 14.2308 40.719 14.7794 40.719H15.046C15.5946 40.719 16.1208 40.501 16.5087 40.1131C16.8966 39.7252 17.1145 39.1991 17.1145 38.6505C17.1145 38.1019 16.8966 37.5758 16.5087 37.1879C16.1208 36.8 15.5946 36.582 15.046 36.582Z" fill="#284080"/>
</svg>
