<svg width="188" height="189" viewBox="0 0 188 189" fill="none" xmlns="http://www.w3.org/2000/svg">
<path d="M182.275 71.297H129.722V5.72207C129.722 2.57493 127.146 0 123.998 0H59.4799C56.3313 0 53.7552 2.57493 53.7552 5.72207V28.3242L3.72107 47.2643C1.48843 48.1226 0 50.2398 0 52.643V183.278C0 186.425 2.57613 189 5.72473 189H182.275C185.424 189 188 186.425 188 183.278V77.0191C188 73.8719 185.424 71.297 182.275 71.297ZM176.551 177.613H168.307C168.364 177.213 168.536 176.869 168.536 176.469V116.673C168.536 112.496 165.158 109.12 160.979 109.12C156.8 109.12 153.423 112.496 153.423 116.673V176.469C153.423 176.869 153.594 177.213 153.652 177.613H139.454C139.512 177.213 139.683 176.869 139.683 176.469V103.512C139.683 99.3351 136.306 95.9591 132.127 95.9591C127.948 95.9591 124.57 99.3351 124.57 103.512V176.469C124.57 176.869 124.742 177.213 124.799 177.613H116.097V82.7411H176.493V177.613H176.551ZM104.705 177.613H83.6955V160.046H104.705V177.613ZM118.273 11.4441V71.2398H110.43C107.281 71.2398 104.705 73.8147 104.705 76.9619V148.545H77.9708C74.8222 148.545 72.246 151.12 72.246 154.267V177.556H65.2046V11.4441H118.273ZM53.7552 40.6267V177.613H11.4495V56.6485L53.7552 40.6267Z" fill="#060F26"/>
<path d="M27.4214 160.388H38.2984C42.4774 160.388 45.855 157.012 45.855 152.835C45.855 148.658 42.4774 145.282 38.2984 145.282H27.4214C23.2423 145.282 19.8647 148.658 19.8647 152.835C19.8647 157.012 23.2423 160.388 27.4214 160.388Z" fill="#00E3C2"/>
<path d="M27.4214 133.839H38.2984C42.4774 133.839 45.855 130.463 45.855 126.286C45.855 122.109 42.4774 118.733 38.2984 118.733H27.4214C23.2423 118.733 19.8647 122.109 19.8647 126.286C19.8647 130.463 23.2423 133.839 27.4214 133.839Z" fill="#00E3C2"/>
<path d="M27.4214 107.29H38.2984C42.4774 107.29 45.855 103.914 45.855 99.7372C45.855 95.5601 42.4774 92.1841 38.2984 92.1841H27.4214C23.2423 92.1841 19.8647 95.5601 19.8647 99.7372C19.8647 103.914 23.2423 107.29 27.4214 107.29Z" fill="#00E3C2"/>
<path d="M27.4214 80.7371H38.2984C42.4774 80.7371 45.855 77.3611 45.855 73.184C45.855 69.0069 42.4774 65.6309 38.2984 65.6309H27.4214C23.2423 65.6309 19.8647 69.0069 19.8647 73.184C19.8647 77.3611 23.2423 80.7371 27.4214 80.7371Z" fill="#00E3C2"/>
<path d="M79.8027 133.895H90.6797C94.8588 133.895 98.2364 130.519 98.2364 126.342C98.2364 122.165 94.8588 118.789 90.6797 118.789H79.8027C75.6237 118.789 72.2461 122.165 72.2461 126.342C72.2461 130.519 75.6237 133.895 79.8027 133.895Z" fill="#00E3C2"/>
<path d="M79.8027 107.347H90.6797C94.8588 107.347 98.2364 103.971 98.2364 99.7934C98.2364 95.6163 94.8588 92.2402 90.6797 92.2402H79.8027C75.6237 92.2402 72.2461 95.6163 72.2461 99.7934C72.2461 103.971 75.6237 107.347 79.8027 107.347Z" fill="#00E3C2"/>
<path d="M79.8027 80.7977H90.6797C94.8588 80.7977 98.2364 77.4216 98.2364 73.2445C98.2364 69.0674 94.8588 65.6914 90.6797 65.6914H79.8027C75.6237 65.6914 72.2461 69.0674 72.2461 73.2445C72.2461 77.4216 75.6237 80.7977 79.8027 80.7977Z" fill="#00E3C2"/>
<path d="M79.8027 54.2445H104.247C108.426 54.2445 111.804 50.8684 111.804 46.6913C111.804 42.5142 108.426 39.1382 104.247 39.1382H79.8027C75.6237 39.1382 72.2461 42.5142 72.2461 46.6913C72.2461 50.8684 75.6237 54.2445 79.8027 54.2445Z" fill="#00E3C2"/>
</svg>
