<svg width="144" height="161" viewBox="0 0 144 161" fill="none" xmlns="http://www.w3.org/2000/svg">
<path d="M71.6132 92.1847L81.8342 98.7992C83.6162 99.9743 85.8015 100.377 87.886 99.9407L95.787 98.2955C89.1972 94.0314 82.6074 89.7336 76.0176 85.4695L71.6132 92.1847ZM67.915 58.6087C68.621 61.9663 71.9494 64.1487 75.3452 63.4436L76.1857 63.2757L61.3924 85.7381L57.8623 68.9501C56.9545 64.6188 52.6845 61.832 48.3137 62.7385L57.4588 106.32L82.9099 67.6742L83.0782 68.5472C83.4144 70.1588 84.3894 71.569 85.7679 72.4756C87.1463 73.3821 88.8609 73.6843 90.4747 73.3485L86.5748 54.7139L67.915 58.6087Z" fill="#5BE2C4"/>
<path d="M105.033 48.5021L96.8629 9.48675C95.5181 3.04016 89.1636 -1.08969 82.7083 0.253349L30.0911 11.2327C23.6358 12.5757 19.5004 18.9216 20.8452 25.3682L47.2715 151.513C48.6164 157.96 54.9709 162.09 61.4262 160.747L114.043 149.767C120.499 148.424 124.634 142.078 123.289 135.632L114.682 94.5684L105.033 48.5021ZM108.093 95.9785L116.7 137.042C117.271 139.829 115.489 142.616 112.665 143.186L60.0476 154.166C57.257 154.737 54.4664 152.957 53.8948 150.137L27.4685 23.9916C26.897 21.2048 28.6789 18.418 31.5031 17.8472L37.8576 16.5041C38.9671 21.3727 43.8085 24.4616 48.7172 23.4544L70.6047 18.888C75.5134 17.8472 78.6738 13.0794 77.766 8.17729L84.1205 6.83424C86.9111 6.26345 89.7015 8.04298 90.2731 10.8634L98.443 49.8787L108.093 95.9785ZM69.2263 12.2736L47.3388 16.8399C46.0612 17.1085 44.8507 16.3363 44.4809 15.1275L71.1425 9.5539C71.3107 10.8298 70.4703 12.0385 69.2263 12.2736Z" fill="#060F26"/>
<path d="M99.9224 135.833L68.7892 142.347C67.1418 142.683 66.0659 144.328 66.4357 145.973C66.7719 147.619 68.4194 148.693 70.0668 148.357L101.2 141.843C102.847 141.508 103.923 139.862 103.587 138.217C103.184 136.538 101.57 135.498 99.9224 135.833Z" fill="#060F26"/>
<path d="M86.8101 26.7111C88.2559 26.4089 89.1636 24.9987 88.861 23.5885L87.3143 16.1682C87.0118 14.758 85.5997 13.8179 84.1876 14.1201C82.7419 14.4223 81.8341 15.8325 82.1367 17.2426L83.6834 24.6629C83.9524 26.1067 85.3644 27.0133 86.8101 26.7111Z" fill="#060F26"/>
<path d="M88.9283 36.9188C90.374 36.6166 91.2818 35.2064 90.9792 33.7962L90.643 32.1174C90.3404 30.7072 88.9282 29.7671 87.5161 30.0693C86.0704 30.3715 85.1626 31.7817 85.4652 33.1919L85.8016 34.8707C86.1042 36.3144 87.5162 37.221 88.9283 36.9188Z" fill="#060F26"/>
<path d="M128.4 26.1067C129.879 26.1067 131.056 24.9315 131.056 23.4542V15.8996C131.056 14.4558 129.879 13.2471 128.4 13.2471C126.954 13.2471 125.744 14.4222 125.744 15.8996V23.4542C125.744 24.8979 126.92 26.1067 128.4 26.1067Z" fill="#060F26"/>
<path d="M128.4 44.3723C129.879 44.3723 131.056 43.1971 131.056 41.7198V34.1652C131.056 32.7214 129.879 31.5127 128.4 31.5127C126.954 31.5127 125.744 32.6879 125.744 34.1652V41.7198C125.744 43.1971 126.92 44.3723 128.4 44.3723Z" fill="#060F26"/>
<path d="M131.123 28.7931C131.123 30.2705 132.3 31.4456 133.779 31.4456H141.344C142.789 31.4456 144 30.2705 144 28.7931C144 27.3158 142.823 26.1406 141.344 26.1406H133.779C132.3 26.1742 131.123 27.3494 131.123 28.7931Z" fill="#060F26"/>
<path d="M112.799 28.7931C112.799 30.2705 113.976 31.4456 115.456 31.4456H123.02C124.466 31.4456 125.676 30.2705 125.676 28.7931C125.676 27.3158 124.5 26.1406 123.02 26.1406H115.456C113.976 26.1742 112.799 27.3494 112.799 28.7931Z" fill="#060F26"/>
<path d="M15.5667 129.353C17.046 129.353 18.2227 128.178 18.2227 126.7V119.146C18.2227 117.702 17.046 116.493 15.5667 116.493C14.1209 116.493 12.9106 117.668 12.9106 119.146V126.7C12.9106 128.144 14.1209 129.353 15.5667 129.353Z" fill="#060F26"/>
<path d="M15.5667 147.618C17.046 147.618 18.2227 146.443 18.2227 144.966V137.411C18.2227 135.968 17.046 134.759 15.5667 134.759C14.1209 134.759 12.9106 135.934 12.9106 137.411V144.966C12.9106 146.443 14.1209 147.618 15.5667 147.618Z" fill="#060F26"/>
<path d="M18.29 132.072C18.29 133.55 19.4667 134.725 20.946 134.725H28.5108C29.9565 134.725 31.167 133.55 31.167 132.072C31.167 130.595 29.9902 129.42 28.5108 129.42H20.946C19.4667 129.42 18.29 130.595 18.29 132.072Z" fill="#060F26"/>
<path d="M0 132.072C0 133.55 1.17667 134.725 2.65601 134.725H10.2208C11.6665 134.725 12.877 133.55 12.877 132.072C12.877 130.595 11.7001 129.42 10.2208 129.42H2.65601C1.17667 129.42 0 130.595 0 132.072Z" fill="#060F26"/>
</svg>
