<svg width="53" height="37" viewBox="0 0 53 37" fill="none" xmlns="http://www.w3.org/2000/svg">
<path d="M52.16 5.53C52.16 2.48 49.68 0 46.63 0H5.53C2.48 0 0 2.48 0 5.53V31.28C0 34.33 2.48 36.81 5.53 36.81H39.46L46.63 36.84C49.68 36.84 52.16 34.36 52.16 31.31V20.79V5.53ZM2.64001 9.96H41.89C42.62 9.96 43.21 9.37 43.21 8.64C43.21 7.91 42.62 7.32 41.89 7.32H2.64001V5.52C2.64001 3.93 3.94 2.63 5.53 2.63H46.63C48.22 2.63 49.52 3.93 49.52 5.52V13.85H2.63V9.96H2.64001ZM49.53 31.3C49.53 32.89 48.23 34.19 46.64 34.19L39.2 34.16H5.54001C3.95001 34.16 2.64999 32.86 2.64999 31.27V16.49H49.54V20.04V31.3H49.53Z" fill="#060F26"/>
<path d="M21.1803 21.9399H7.85028C7.12028 21.9399 6.53027 22.5299 6.53027 23.2599C6.53027 23.9899 7.12028 24.5799 7.85028 24.5799H21.1803C21.9103 24.5799 22.5003 23.9899 22.5003 23.2599C22.5003 22.5299 21.9103 21.9399 21.1803 21.9399Z" fill="#060F26"/>
<path d="M13.0396 26.75H7.83954C7.10954 26.75 6.51953 27.34 6.51953 28.07C6.51953 28.8 7.10954 29.39 7.83954 29.39H13.0396C13.7696 29.39 14.3596 28.8 14.3596 28.07C14.3596 27.34 13.7696 26.75 13.0396 26.75Z" fill="#060F26"/>
<path d="M46.4099 7.33008H45.7399C45.0099 7.33008 44.4199 7.92008 44.4199 8.65008C44.4199 9.38008 45.0099 9.97008 45.7399 9.97008H46.4099C47.1399 9.97008 47.7299 9.38008 47.7299 8.65008C47.7299 7.92008 47.1399 7.33008 46.4099 7.33008Z" fill="#060F26"/>
<path d="M18.3396 26.75H17.6696C16.9396 26.75 16.3496 27.34 16.3496 28.07C16.3496 28.8 16.9396 29.39 17.6696 29.39H18.3396C19.0696 29.39 19.6596 28.8 19.6596 28.07C19.6596 27.34 19.0696 26.75 18.3396 26.75Z" fill="#060F26"/>
<path d="M39.9996 21.0298C39.0896 21.0298 38.2296 21.3098 37.5096 21.8098C36.7996 21.3198 35.9496 21.0298 35.0196 21.0298C32.5996 21.0298 30.6396 22.9898 30.6396 25.4098C30.6396 27.8298 32.5996 29.7898 35.0196 29.7898C35.9496 29.7898 36.8096 29.4998 37.5096 28.9998C38.2396 29.5098 39.0996 29.7898 39.9996 29.7898C42.4196 29.7898 44.3796 27.8298 44.3796 25.4098C44.3796 22.9898 42.4196 21.0298 39.9996 21.0298ZM32.2396 25.4098C32.2396 23.8798 33.4896 22.6298 35.0196 22.6298C36.5496 22.6298 37.7996 23.8798 37.7996 25.4098C37.7996 26.9398 36.5496 28.1898 35.0196 28.1898C33.4896 28.1898 32.2396 26.9398 32.2396 25.4098ZM39.9996 28.1898C39.5196 28.1898 39.0696 28.0598 38.6596 27.8298C39.1196 27.1398 39.3996 26.2998 39.3996 25.4098C39.3996 24.5098 39.1296 23.6798 38.6596 22.9898C39.0696 22.7598 39.5196 22.6298 39.9996 22.6298C41.5296 22.6298 42.7796 23.8798 42.7796 25.4098C42.7796 26.9398 41.5296 28.1898 39.9996 28.1898Z" fill="#060F26"/>
</svg>
