<svg width="44" height="42" viewBox="0 0 44 42" fill="none" xmlns="http://www.w3.org/2000/svg">
<path d="M41.57 11.12H31.55L32.52 10.46C33.16 10.02 33.68 9.61 34.03 9.26C36.14 7.13 36.14 3.67 34.03 1.55C33.05 0.569999 31.65 0 30.19 0C28.72 0 27.32 0.559999 26.35 1.55C25.26 2.64 22.03 7.47 22.47 10.72L22.53 11.13H21.5L21.56 10.72C21.99 7.47 18.76 2.64 17.68 1.55C16.7 0.569999 15.3 0 13.84 0C12.37 0 10.97 0.559999 10 1.55C7.89 3.68 7.89 7.14 10 9.26C10.35 9.62 10.87 10.03 11.51 10.47L12.48 11.13H2.42999C1.08999 11.13 0 12.22 0 13.56V20.54C0 21.11 0.460039 21.58 1.04004 21.58H2.79999V38.71C2.79999 40.05 3.89004 41.14 5.23004 41.14H38.77C40.11 41.14 41.2 40.05 41.2 38.71V21.58H42.96C43.53 21.58 44 21.12 44 20.54V13.55C44 12.22 42.91 11.12 41.57 11.12ZM35.39 31.45C35.96 31.45 36.43 30.99 36.43 30.41V21.58H39.13V39.07H23.03V21.58H34.35V30.41C34.36 30.98 34.82 31.45 35.39 31.45ZM27.81 3C28.42 2.39 29.28 2.04 30.18 2.04C31.08 2.04 31.95 2.39 32.55 3C33.86 4.32 33.86 6.47 32.55 7.79C31.28 9.07 27.52 11.12 25.47 11.12C24.95 11.12 24.75 10.98 24.69 10.92C23.72 9.91 26.14 4.68 27.81 3ZM41.93 13.19V19.5H23.03V13.19H41.93ZM20.96 21.58V39.07H4.86005V21.58H20.96ZM18.52 11.12C16.47 11.12 12.71 9.08 11.44 7.79C10.13 6.47 10.13 4.32 11.44 3C12.08 2.36 12.92 2.01 13.82 2.01C14.71 2.01 15.56 2.36 16.19 3C17.86 4.68 20.28 9.9 19.3 10.91C19.13 11.06 18.88 11.12 18.52 11.12ZM20.96 13.19V19.5H2.07001V13.19H20.96Z" fill="#060F26"/>
<path d="M35.3904 34.4898C35.9404 34.4898 36.3804 34.0398 36.3804 33.4998C36.3804 32.9498 35.9304 32.5098 35.3904 32.5098C34.8404 32.5098 34.4004 32.9598 34.4004 33.4998C34.4004 34.0498 34.8504 34.4898 35.3904 34.4898Z" fill="#060F26"/>
</svg>
