<svg width="39" height="39" viewBox="0 0 39 39" fill="none" xmlns="http://www.w3.org/2000/svg">
<path d="M38.7512 19.9211L36.7084 17.41C36.3694 16.996 35.7783 16.942 35.3784 17.293L32.9532 19.4081C32.5533 19.7591 32.5012 20.3711 32.8402 20.7852C33.1792 21.1992 33.7703 21.2532 34.1702 20.9022L34.8047 20.3531C34.1876 29.2635 27.0509 36.1668 18.3669 36.1668C17.7671 36.1668 17.1673 36.1308 16.5675 36.0678C16.0546 36.0048 15.5852 36.4008 15.5244 36.9319C15.4722 37.4719 15.846 37.9489 16.3589 38.0119C17.0195 38.0839 17.6889 38.1199 18.3582 38.1199C23.2609 38.1199 27.8767 36.1398 31.345 32.5487C34.4918 29.2905 36.3781 24.9973 36.6823 20.4251L37.2908 21.1722C37.6125 21.5682 38.2383 21.6222 38.6208 21.2892C38.812 21.1182 38.9337 20.8842 38.9511 20.6231C38.9859 20.3711 38.9077 20.1191 38.7512 19.9211Z" fill="#060F26"/>
<path d="M8.53601 4.95313L11.5176 6.06918C11.9957 6.24919 12.552 5.97018 12.7259 5.48416C12.8128 5.24115 12.8041 4.97114 12.6911 4.73713C12.5868 4.50311 12.3956 4.32311 12.1608 4.2331L11.0482 3.81908C13.3083 2.65803 15.8292 2.046 18.3674 2.046C24.8869 2.046 30.8066 6.03318 33.4492 12.2165C33.597 12.5675 33.936 12.8015 34.3098 12.8015C34.4402 12.8015 34.5705 12.7745 34.6922 12.7205C34.9269 12.6125 35.1008 12.4235 35.1877 12.1805C35.2746 11.9374 35.2747 11.6674 35.1703 11.4334C32.2322 4.54812 25.6345 0.101916 18.3674 0.101916C15.6988 0.101916 13.0301 0.713945 10.6223 1.875L10.8222 1.30797C10.9091 1.06496 10.9004 0.794949 10.7874 0.560939C10.6831 0.326928 10.4919 0.146919 10.2572 0.0569149C9.77036 -0.123093 9.22273 0.13792 9.04887 0.641943L7.97098 3.72008C7.79713 4.2061 8.04922 4.77312 8.53601 4.95313Z" fill="#060F26"/>
<path d="M10.266 31.6573C10.1704 31.1263 9.68363 30.7753 9.17076 30.8653C8.65789 30.9643 8.31888 31.4683 8.40581 31.9993L8.54489 32.8094C4.36371 29.5872 1.88631 24.502 1.88631 19.1108C1.88631 15.4566 2.99027 11.9644 5.06782 9.03031C5.37206 8.59829 5.28514 7.98627 4.86789 7.66225C4.45064 7.34724 3.85954 7.43724 3.5466 7.86926C1.22566 11.1454 0 15.0336 0 19.1108C0 22.5129 0.877958 25.8521 2.53826 28.7592C3.80739 30.9913 5.54592 32.9624 7.57131 34.4925L6.60643 34.6725C6.09356 34.7715 5.75455 35.2755 5.84147 35.8065C5.91971 36.2745 6.31088 36.6165 6.77159 36.6165C6.82374 36.6165 6.88459 36.6075 6.93674 36.5985L10.0574 36.0225C10.5703 35.9235 10.9093 35.4195 10.8224 34.8885L10.266 31.6573Z" fill="#060F26"/>
<path d="M18.4906 30.9552C24.8276 30.9552 29.991 25.618 29.991 19.0477C29.991 12.4774 24.8363 7.14014 18.4906 7.14014C12.1537 7.14014 6.99023 12.4774 6.99023 19.0477C6.99023 25.618 12.1537 30.9552 18.4906 30.9552ZM8.88524 19.0477C8.88524 13.5664 13.1968 9.10222 18.4906 9.10222C23.7845 9.10222 28.096 13.5664 28.096 19.0477C28.096 24.5289 23.7845 28.9931 18.4906 28.9931C13.1968 28.9931 8.88524 24.5379 8.88524 19.0477Z" fill="#060F26"/>
<path d="M12.813 14.8983C13.0824 14.8983 13.3432 14.7723 13.5258 14.5653C13.6909 14.3673 13.7692 14.1153 13.7518 13.8543C13.7344 13.5933 13.6214 13.3593 13.4302 13.1882C13.0477 12.8462 12.4218 12.8912 12.1002 13.2782C11.935 13.4763 11.8481 13.7283 11.8655 13.9893C11.8829 14.2503 11.9959 14.4843 12.1871 14.6553C12.361 14.8083 12.5783 14.8983 12.813 14.8983Z" fill="#060F26"/>
<path d="M12.8392 25.1857C13.0652 25.1857 13.2912 25.0956 13.465 24.9426C13.6563 24.7716 13.7693 24.5286 13.778 24.2676C13.7953 24.0066 13.7084 23.7546 13.5433 23.5566C12.4828 22.3055 11.8917 20.7035 11.8917 19.0384C11.8917 18.3093 12.0047 17.5893 12.222 16.9053C12.3871 16.3923 12.1177 15.8432 11.6222 15.6722C11.1267 15.5102 10.5878 15.7982 10.4313 16.2933C10.1531 17.1753 10.0053 18.0933 10.014 19.0294C10.014 21.1715 10.7703 23.2326 12.135 24.8346C12.3089 25.0686 12.5697 25.1857 12.8392 25.1857Z" fill="#060F26"/>
<path d="M19.5923 23.8991V26.0142H17.8103V23.8811C16.5498 23.7011 15.3328 23.161 14.4375 22.396L15.385 20.4159C16.3499 21.28 17.8016 21.883 18.7838 21.883C19.5053 21.883 19.9573 21.604 19.9573 21.0909C19.9573 19.4439 15.0199 20.4339 15.0199 17.0048C15.0199 15.4657 16.0891 14.4036 17.8016 14.1156V12.0815H19.5836V14.1066C20.6788 14.2326 21.722 14.6197 22.513 15.1507L21.5916 17.1578C20.6006 16.5727 19.3489 16.1137 18.5665 16.1137C17.9754 16.1137 17.5929 16.3387 17.5929 16.7798C17.5929 18.3908 22.5304 17.4728 22.5304 20.9649C22.5391 22.666 21.2786 23.6651 19.5923 23.8991Z" fill="#060F26"/>
</svg>
