<svg width="85" height="80" viewBox="0 0 85 80" fill="none" xmlns="http://www.w3.org/2000/svg">
<g clip-path="url(#clip0_29_768)">
<path d="M64.9905 32.0076C65.0591 32.1232 65.1277 32.2494 65.1963 32.365C65.3793 32.7225 65.7795 32.9538 66.214 32.9538C66.3855 32.9538 66.5456 32.9223 66.7057 32.8487C66.9801 32.733 67.1859 32.5227 67.2889 32.2599C67.3918 31.9971 67.3689 31.7132 67.2431 31.4609C67.1631 31.3032 67.083 31.156 66.9916 30.9983C66.8429 30.7565 66.6028 30.5778 66.3169 30.5042C66.0311 30.4306 65.7223 30.4516 65.4593 30.5883C65.1963 30.725 65.0019 30.9457 64.9219 31.2086C64.819 31.4819 64.8533 31.7658 64.9905 32.0076Z" fill="#060F26"/>
<path d="M68.1582 34.2891C68.0782 33.7214 67.5065 33.3219 66.889 33.3955C66.5917 33.4375 66.3287 33.5742 66.1457 33.795C65.9628 34.0157 65.8827 34.2891 65.9285 34.5624C66.2258 36.56 65.6426 38.5365 64.2933 40.1346C64.1104 40.3553 64.0303 40.6287 64.0646 40.902C64.0989 41.1754 64.259 41.4277 64.4992 41.5959C64.6935 41.7431 64.9337 41.8167 65.1967 41.8167C65.5511 41.8167 65.8713 41.6695 66.0886 41.4172C67.8038 39.3671 68.547 36.8439 68.1582 34.2891Z" fill="#060F26"/>
<path d="M74.7901 33.6478C74.2298 33.1326 73.4865 32.8383 72.6861 32.8383C72.3545 32.8383 72.0343 32.8908 71.7256 32.9855C71.1881 30.3361 69.7588 28.0231 67.5977 26.2884C66.3056 25.2476 64.7619 24.4065 63.001 23.7967C63.7899 22.5982 64.2016 21.2315 64.213 19.8332C64.213 15.5858 60.451 12.1163 55.8314 12.1163C55.8314 12.1163 55.8314 12.1163 55.82 12.1163C53.5788 12.1163 51.4749 12.9154 49.8969 14.3767C48.3075 15.8381 47.4384 17.7726 47.427 19.8332C47.427 21.1894 47.8158 22.5246 48.5705 23.7126C48.2617 23.8073 47.9873 23.8914 47.7357 23.986L43.139 20.3168C42.8188 20.0645 42.3729 19.9909 41.9841 20.1381C41.5839 20.2747 41.3209 20.6112 41.2752 21.0002L40.6577 26.5723C37.982 27.9916 36.2782 30.0312 35.4549 32.7962C35.009 34.3102 34.7803 34.3207 33.9341 34.3943C32.3905 34.5099 31.6358 35.1302 31.2813 35.6243C30.7553 36.3498 30.6867 37.2644 31.064 38.3473L32.1389 41.4172C32.6763 42.9732 33.7054 43.2991 34.4716 43.2991H35.3978C37.7533 46.0852 39.9602 46.8106 42.7731 47.4624C42.6931 48.314 42.5673 49.3654 42.3958 50.6795H40.2117C39.5828 50.6795 39.0797 51.1421 39.0797 51.7204C39.0797 51.9937 39.1941 52.2566 39.4113 52.4563C39.6286 52.6561 39.9144 52.7612 40.2117 52.7612L50.0684 52.7717C50.6973 52.7717 51.2004 52.3091 51.2004 51.7309C51.2004 51.1526 50.6973 50.6901 50.0684 50.6901H49.9884L50.4343 49.3023C52.5726 49.5861 54.7566 49.4495 57.4552 48.8607L57.4666 48.9238C57.5809 49.7859 57.6953 50.7636 57.6724 51.7099C57.661 51.9832 57.7868 52.2671 57.9926 52.4668C58.2098 52.6666 58.4957 52.7822 58.8044 52.7822L67.3804 52.7927C68.0093 52.7927 68.5124 52.3301 68.5124 51.7519C68.5124 51.4786 68.3981 51.2157 68.1808 51.016C67.9636 50.8162 67.6777 50.7111 67.3804 50.7111H65.6195C66.4885 47.6096 68.0093 44.6974 69.0156 43.4989C70.948 41.207 71.9657 38.4735 71.9657 35.5928C71.9657 35.2248 72.2859 34.9304 72.6746 34.9304C73.0634 34.9304 73.3836 35.2248 73.3836 35.5928C73.3836 35.7715 73.3036 35.9397 73.1778 36.0659C72.7433 36.4759 72.7433 37.1277 73.1778 37.5378C73.395 37.7375 73.6695 37.8427 73.9782 37.8427C74.2869 37.8427 74.5614 37.7375 74.7786 37.5378C75.3389 37.0226 75.6476 36.3287 75.6476 35.6033C75.6591 34.8569 75.3503 34.1735 74.7901 33.6478ZM63.2983 50.7006H59.925C59.8907 49.9857 59.7993 49.3023 59.7192 48.682C59.662 48.2509 59.6163 47.8409 59.582 47.4729C59.5591 47.1575 59.3876 46.8842 59.1017 46.695C58.8273 46.5162 58.4728 46.4637 58.1527 46.5373C54.768 47.3994 52.2867 47.5571 49.874 47.084C49.3023 46.9683 48.7191 47.2837 48.5476 47.8094L47.6328 50.6795H44.6712C44.8999 48.9659 45.0372 47.6727 45.0943 46.716C45.1286 46.2113 44.7627 45.7698 44.2367 45.6436C41.0579 44.9287 39.1369 44.4977 36.8728 41.638C36.6556 41.3752 36.324 41.207 35.9581 41.207H34.5059C34.4601 41.1649 34.3687 41.0282 34.2886 40.7759L33.2138 37.706C33.0651 37.2749 33.0422 36.928 33.1566 36.7703C33.2709 36.6126 33.6368 36.4969 34.1171 36.4549C36.3354 36.2867 37.0901 35.1828 37.639 33.3324C38.5652 30.1889 40.7149 28.8642 42.2357 28.1388C42.5787 27.9811 42.8074 27.6657 42.8417 27.3187L43.2991 23.1975L46.7638 25.9625C47.084 26.2253 47.5528 26.2884 47.953 26.1307C48.6048 25.8784 49.3251 25.6471 50.0684 25.4473C50.6744 25.973 51.3491 26.4041 52.0923 26.7405C51.8636 26.9823 51.7607 27.3187 51.8408 27.6341C51.9551 28.1072 52.4125 28.4542 52.9385 28.4542C53.03 28.4542 53.0986 28.4437 53.1786 28.4332C54.9738 28.0757 56.8148 28.0021 58.5071 28.2124C59.1246 28.286 59.6963 27.897 59.7878 27.3187C59.8221 27.0979 59.7764 26.8667 59.6506 26.6669C60.3024 26.3515 60.9199 25.9625 61.4687 25.4999C64.6018 26.4461 69.7131 28.9904 69.7131 35.5612C69.7131 37.9793 68.8555 40.2713 67.2318 42.1952C65.7681 43.9615 64.133 47.5045 63.2983 50.7006ZM55.82 25.7522C52.2753 25.7522 49.3823 23.0923 49.3938 19.8332C49.3938 17.3415 51.1089 15.1021 53.6589 14.2611C54.3564 14.0298 55.0882 13.9141 55.8314 13.9141C59.3762 13.9141 62.2691 16.574 62.2577 19.8332C62.2463 23.1029 59.3647 25.7522 55.82 25.7522Z" fill="#060F26"/>
<path d="M42.0871 31.9656C41.4582 31.9656 40.9551 32.4282 40.9551 33.0064C40.9551 33.2798 41.0694 33.5426 41.2867 33.7423C41.5039 33.9421 41.7898 34.0472 42.0871 34.0472C42.716 34.0472 43.2191 33.5846 43.2191 33.0064C43.2191 32.7331 43.1048 32.4702 42.8875 32.2705C42.6817 32.0707 42.3958 31.9656 42.0871 31.9656Z" fill="#060F26"/>
<path d="M55.7401 18.2247C56.1861 18.2247 56.9293 18.456 57.5582 18.7819L57.684 18.845L58.3701 17.5203L58.2672 17.4677C57.7641 17.1733 57.1466 16.9631 56.4948 16.8895V15.754H55.1227V16.9C54.0364 17.0997 53.3846 17.7305 53.3846 18.6032C53.3846 19.8227 54.5624 20.1171 55.4314 20.3274C55.9802 20.464 56.4605 20.5797 56.4605 20.8635C56.4605 20.9582 56.4148 21.0318 56.3233 21.0843C56.2204 21.1474 56.0603 21.1789 55.8545 21.1789C55.2599 21.1789 54.3794 20.8425 53.8191 20.3904L53.6933 20.2958L52.9844 21.61L53.0644 21.6731C53.6133 22.0936 54.3565 22.388 55.1227 22.5036V23.7022H56.4948V22.5142C57.6497 22.3354 58.3358 21.6941 58.3358 20.79C58.3358 19.5494 57.1351 19.234 56.2661 19.0027C55.7287 18.8555 55.2599 18.7398 55.2599 18.4665C55.2599 18.3929 55.2942 18.3298 55.3628 18.2878C55.4543 18.2457 55.58 18.2247 55.7401 18.2247Z" fill="#060F26"/>
</g>
<path d="M73.5698 11.702C73.156 11.1844 72.4011 11.0997 71.8831 11.5135C71.3654 11.9272 71.2809 12.6825 71.6947 13.2003L72.8982 14.7069H65.2667C64.6038 14.7069 64.0667 15.2441 64.0667 15.907C64.0667 16.57 64.6038 17.1072 65.2667 17.1072H72.8982L71.6947 18.6138C71.2809 19.1316 71.3652 19.8869 71.8831 20.3005C72.4043 20.7168 73.1589 20.6265 73.5698 20.112L76.3305 16.6561C76.6806 16.2179 76.6806 15.5959 76.3305 15.1578L73.5698 11.702Z" fill="black"/>
<path d="M25.4411 53.3716C25.8536 53.8879 26.6084 53.9751 27.1278 53.5602C27.6455 53.1465 27.73 52.3912 27.3163 51.8734L26.1127 50.3668H33.744C34.407 50.3668 34.9441 49.8296 34.9441 49.1666C34.9441 48.5037 34.407 47.9665 33.744 47.9665H26.1125L27.3161 46.4599C27.7299 45.9421 27.6455 45.1868 27.1276 44.7731C26.6097 44.3593 25.8544 44.4437 25.441 44.9616L22.6801 48.4176C22.33 48.8557 22.33 49.4777 22.6801 49.9159L25.4411 53.3716Z" fill="black"/>
<path d="M22.6462 56.8348H42.8805C43.4172 56.8348 43.852 56.432 43.852 55.9347C43.852 55.4375 43.4172 55.0346 42.8805 55.0346H22.9763V52.8277C22.9763 52.4627 22.7385 52.134 22.3742 51.9952C22.0096 51.8561 21.5912 51.9351 21.3142 52.1946L15.2259 57.8967C14.8515 58.2474 14.8515 58.8121 15.2259 59.1628L21.3142 64.8648C21.5897 65.1229 22.0084 65.2038 22.3742 65.0642C22.7385 64.9255 22.9763 64.5967 22.9763 64.2317V62.0249H42.8805C43.4172 62.0249 43.852 61.622 43.852 61.1248C43.852 60.6275 43.4172 60.2247 42.8805 60.2247H22.6462C21.7569 60.2247 21.0333 60.8951 21.0333 61.719V62.0419L17.2831 58.5296L21.0333 55.0172V55.3402C21.0333 56.1645 21.7569 56.8348 22.6462 56.8348V56.8348Z" fill="black"/>
<path d="M83.7355 5.9693L77.6472 0.267302C77.3702 0.00783127 76.9517 -0.0713782 76.5872 0.0678384C76.2229 0.206575 75.9851 0.535414 75.9851 0.900378V3.1072H71.505C70.9683 3.1072 70.5335 3.51009 70.5335 4.00731C70.5335 4.50453 70.9683 4.90742 71.505 4.90742H76.3153C77.2045 4.90742 77.928 4.23702 77.928 3.41312V3.09016L81.6783 6.6025L77.928 10.1147V9.79188C77.928 8.96786 77.2045 8.29746 76.3153 8.29746H56.0808C55.5442 8.29746 55.1094 8.70035 55.1094 9.19757C55.1094 9.69479 55.5442 10.0977 56.0808 10.0977H75.9851V12.3045C75.9851 12.6695 76.2229 12.9982 76.5872 13.137C76.9536 13.2769 77.3721 13.1952 77.6472 12.9376L83.7355 7.23569C84.1099 6.88465 84.1099 6.31998 83.7355 5.9693V5.9693Z" fill="black"/>
<path d="M56.0808 4.90727H67.6208C68.1575 4.90727 68.5923 4.50438 68.5923 4.00716C68.5923 3.50994 68.1575 3.10706 67.6208 3.10706H56.0808C55.5442 3.10706 55.1094 3.50994 55.1094 4.00716C55.1094 4.50438 55.5443 4.90727 56.0808 4.90727Z" fill="black"/>
<defs>
<clipPath id="clip0_29_768">
<rect width="44.8352" height="40.6764" fill="white" transform="translate(30.8242 12.1163)"/>
</clipPath>
</defs>
</svg>
