<svg width="41" height="40" viewBox="0 0 41 40" fill="none" xmlns="http://www.w3.org/2000/svg">
<path d="M30.8297 12.7589H19.4997C19.0697 12.7589 18.7197 12.4089 18.7197 11.9789V1.77886C18.7197 1.46886 18.8997 1.18886 19.1797 1.06886C19.4597 0.938861 19.7897 0.998862 20.0197 1.19886L31.3497 11.3989C31.5897 11.6189 31.6697 11.9589 31.5597 12.2589C31.4497 12.5589 31.1497 12.7589 30.8297 12.7589ZM20.2797 11.1989H28.7997L20.2797 3.51886V11.1989Z" fill="#060F26" stroke="#060F26" stroke-miterlimit="10"/>
<path d="M27.11 39.119H5.51001C3.03001 39.119 1 37.149 1 34.729V5.40904C1 2.98904 3.02001 1.01904 5.51001 1.01904H19.5C19.93 1.01904 20.28 1.36904 20.28 1.79904V11.209H30.84C31.27 11.209 31.62 11.559 31.62 11.989V19.889H30.06V12.769H19.5C19.07 12.769 18.72 12.419 18.72 11.989V2.57904H5.5C3.87 2.57904 2.55 3.84904 2.55 5.40904V34.739C2.55 36.299 3.87 37.569 5.5 37.569H27.1C28.49 37.569 29.71 36.609 29.99 35.299L31.51 35.619C31.09 37.649 29.23 39.119 27.11 39.119Z" fill="#060F26" stroke="#060F26" stroke-miterlimit="10"/>
<path d="M31.1699 36.1689C26.3199 36.1689 22.3799 32.3389 22.3799 27.6189C22.3799 22.8989 26.3199 19.0688 31.1699 19.0688C36.0199 19.0688 39.9599 22.8989 39.9599 27.6189C39.9599 32.3389 36.0199 36.1689 31.1699 36.1689ZM31.1699 20.6289C27.1799 20.6289 23.9299 23.7689 23.9299 27.6189C23.9299 31.4689 27.1799 34.6088 31.1699 34.6088C35.1599 34.6088 38.4099 31.4689 38.4099 27.6189C38.4099 23.7689 35.1599 20.6289 31.1699 20.6289Z" fill="#060F26" stroke="#060F26" stroke-miterlimit="10"/>
<path d="M30.7305 28.4589V24.1789C30.7305 23.8889 30.9005 23.6489 31.1205 23.6489C31.3405 23.6489 31.5105 23.8889 31.5105 24.1789V28.4589C31.5105 28.7489 31.3405 28.9889 31.1205 28.9889C30.9005 28.9889 30.7305 28.7489 30.7305 28.4589Z" fill="#060F26" stroke="#060F26" stroke-width="0.5824" stroke-miterlimit="10"/>
<path d="M30.8701 28.469C30.8701 28.179 31.0401 27.939 31.2601 27.939H34.4301C34.6501 27.939 34.8201 28.179 34.8201 28.469C34.8201 28.759 34.6501 28.999 34.4301 28.999H31.2601C31.0401 28.989 30.8701 28.759 30.8701 28.469Z" fill="#060F26" stroke="#060F26" stroke-width="0.5824" stroke-miterlimit="10"/>
<path d="M15.1804 9.42865H7.89035C7.46035 9.42865 7.11035 9.07865 7.11035 8.64865C7.11035 8.21865 7.46035 7.86865 7.89035 7.86865H15.1804C15.6104 7.86865 15.9604 8.21865 15.9604 8.64865C15.9604 9.07865 15.6104 9.42865 15.1804 9.42865Z" fill="#060F26" stroke="#060F26" stroke-miterlimit="10"/>
<path d="M15.1804 13.9687H7.89035C7.46035 13.9687 7.11035 13.6187 7.11035 13.1887C7.11035 12.7587 7.46035 12.4087 7.89035 12.4087H15.1804C15.6104 12.4087 15.9604 12.7587 15.9604 13.1887C15.9604 13.6187 15.6104 13.9687 15.1804 13.9687Z" fill="#060F26" stroke="#060F26" stroke-miterlimit="10"/>
<path d="M19.9203 23.0488H7.89035C7.46035 23.0488 7.11035 22.6988 7.11035 22.2688C7.11035 21.8388 7.46035 21.4888 7.89035 21.4888H19.9203C20.3503 21.4888 20.7003 21.8388 20.7003 22.2688C20.7003 22.6988 20.3503 23.0488 19.9203 23.0488Z" fill="#060F26" stroke="#060F26" stroke-miterlimit="10"/>
<path d="M19.1696 27.5888H7.87961C7.44961 27.5888 7.09961 27.2388 7.09961 26.8088C7.09961 26.3788 7.44961 26.0288 7.87961 26.0288H19.1696C19.5996 26.0288 19.9496 26.3788 19.9496 26.8088C19.9496 27.2388 19.5996 27.5888 19.1696 27.5888Z" fill="#060F26" stroke="#060F26" stroke-miterlimit="10"/>
<path d="M19.9203 32.1289H7.89035C7.46035 32.1289 7.11035 31.7789 7.11035 31.3489C7.11035 30.9189 7.46035 30.5688 7.89035 30.5688H19.9203C20.3503 30.5688 20.7003 30.9189 20.7003 31.3489C20.7003 31.7789 20.3503 32.1289 19.9203 32.1289Z" fill="#060F26" stroke="#060F26" stroke-miterlimit="10"/>
<path d="M7.59961 17.8188H16.9396" stroke="#060F26" stroke-width="2.6" stroke-miterlimit="10" stroke-linecap="round"/>
<path d="M21.1104 17.8188H21.4503" stroke="#060F26" stroke-width="2.6" stroke-miterlimit="10" stroke-linecap="round"/>
</svg>
