<svg width="46" height="40" viewBox="0 0 46 40" fill="none" xmlns="http://www.w3.org/2000/svg">
<path d="M28.4697 10.225L29.5997 12.445C29.7997 12.855 30.1897 13.135 30.6397 13.195L41.3197 14.745C42.4497 14.905 42.8997 16.295 42.0797 17.095L34.3497 24.625C34.0297 24.945 33.8797 25.395 33.9497 25.845L35.7697 36.485C35.9597 37.615 34.7797 38.465 33.7697 37.935L24.2197 32.915C23.8197 32.705 23.3397 32.705 22.9397 32.915L13.3897 37.935C12.3797 38.465 11.1997 37.605 11.3897 36.485L13.2097 25.845C13.2897 25.395 13.1397 24.945 12.8097 24.625L5.07974 17.095C4.25974 16.295 4.70972 14.905 5.83972 14.745L16.5197 13.195C16.9697 13.125 17.3597 12.845 17.5597 12.445L22.3397 2.765C22.8497 1.745 24.3097 1.745 24.8097 2.765L25.3497 3.855" stroke="#060F26" stroke-width="2.2545" stroke-miterlimit="10" stroke-linecap="round"/>
<path d="M26.8896 6.7749L27.1296 7.3049" stroke="#060F26" stroke-width="2.2545" stroke-miterlimit="10" stroke-linecap="round"/>
<path d="M34.6396 9.24518L39.7496 5.55518" stroke="#060F26" stroke-width="2.2545" stroke-miterlimit="10" stroke-linecap="round"/>
<path d="M12.5399 9.24518L7.41992 5.55518" stroke="#060F26" stroke-width="2.2545" stroke-miterlimit="10" stroke-linecap="round"/>
<path d="M39.2002 28.5752L44.3202 32.2652" stroke="#060F26" stroke-width="2.2545" stroke-miterlimit="10" stroke-linecap="round"/>
<path d="M7.11002 29.1152L2 32.8052" stroke="#060F26" stroke-width="2.2545" stroke-miterlimit="10" stroke-linecap="round"/>
</svg>
