<svg width="149" height="148" viewBox="0 0 149 148" fill="none" xmlns="http://www.w3.org/2000/svg">
<path d="M40.6434 98.1561C35.9206 99.9112 31.8999 102.815 29.0918 106.453C26.2837 110.091 24.784 114.335 24.784 118.706V125.439C24.784 126.301 25.1988 127.099 25.9008 127.705C26.6028 128.311 27.592 128.63 28.6131 128.63H120.387C121.408 128.63 122.366 128.279 123.1 127.705C123.802 127.099 124.216 126.269 124.216 125.439V118.706C124.216 114.367 122.717 110.122 119.909 106.453C117.101 102.815 113.08 99.9431 108.357 98.1561L89.817 91.1997V86.6046C93.3272 84.8814 96.3908 82.6158 98.8479 79.9034C101.305 77.1911 103.092 74.0957 104.113 70.809H105.102C108.134 70.809 111.07 69.7879 113.208 68.0009C115.346 66.182 116.558 63.7568 116.558 61.1721C116.558 58.5873 115.346 56.1622 113.208 54.3433C111.07 52.5244 108.134 51.5352 105.102 51.5352V45.1212C105.102 38.2924 101.879 31.7508 96.1352 26.9323C90.3914 22.1139 82.6055 19.4015 74.5003 19.4015C66.3951 19.4015 58.6089 22.1139 52.8651 26.9323C47.1212 31.7508 43.8983 38.2924 43.8983 45.1212V51.5352C40.8668 51.5352 37.9309 52.5563 35.7929 54.3433C33.6549 56.1622 32.4424 58.5873 32.4424 61.1721C32.4424 63.7568 33.6549 66.182 35.7929 68.0009C37.9309 69.8198 40.8668 70.809 43.8983 70.809H44.8875C45.9086 74.0957 47.6955 77.1911 50.1526 79.9034C52.6097 82.6158 55.6731 84.8814 59.1832 86.6046V91.1997L40.6434 98.1561ZM105.07 57.9491C106.091 57.9491 107.049 58.3001 107.783 58.8745C108.485 59.4808 108.899 60.3105 108.899 61.1402C108.899 61.9698 108.485 62.7995 107.783 63.4058C107.081 64.0121 106.091 64.3312 105.07 64.3312V57.9491ZM43.8983 64.395C42.8771 64.395 41.9197 64.044 41.1858 63.4696C40.4837 62.8633 40.069 62.0337 40.069 61.204C40.069 60.3743 40.4837 59.5447 41.1858 58.9384C41.8878 58.3321 42.8771 58.013 43.8983 58.013V64.395ZM51.5566 45.0893C51.5566 39.9836 53.9818 35.0694 58.2896 31.4636C62.5975 27.8577 68.4374 25.8155 74.5003 25.8155C80.5633 25.8155 86.4346 27.8577 90.7106 31.4636C95.0185 35.0694 97.4437 39.9836 97.4437 45.0893V48.2165C95.9758 47.9931 94.6356 47.4506 93.5507 46.5891C92.4657 45.7594 91.7 44.6425 91.3171 43.4619L89.6577 37.9095C89.4344 37.1436 88.8919 36.4735 88.1261 36.0268C87.3602 35.58 86.4346 35.3886 85.5092 35.4843C84.5838 35.58 83.7223 35.9629 83.116 36.5373C82.5097 37.1117 82.1585 37.8776 82.1585 38.6753C82.1585 41.2281 80.9461 43.6852 78.7762 45.4722C76.6382 47.2911 73.7023 48.3122 70.6709 48.3122H51.5566V45.0893ZM58.2577 78.0207C53.9498 74.4149 51.5247 69.5007 51.5247 64.395V54.7581H70.6389C73.5428 54.7581 76.3828 54.2156 78.9994 53.1307C81.616 52.0776 83.882 50.514 85.6689 48.5994C86.9134 50.3226 88.6364 51.7585 90.6787 52.8116C92.7209 53.8646 95.0184 54.5028 97.4117 54.6624V64.3631C97.4117 69.4688 94.9866 74.3829 90.6787 77.9888C86.3708 81.5947 80.5313 83.6369 74.4684 83.6369C68.4054 83.6369 62.5656 81.6266 58.2577 78.0207ZM82.1269 89.2532V91.2954C74.8195 95.2523 66.8418 91.2954 66.8418 91.2954V89.2532C71.8517 90.37 77.117 90.37 82.1269 89.2532ZM61.5446 97.3265C62.0551 97.135 62.6295 97.1031 63.172 97.2307C74.9469 100.007 83.2435 98.0923 85.7963 97.3584C86.3707 97.1988 86.9771 97.2307 87.5196 97.4222L105.166 103.996C108.549 105.272 111.42 107.314 113.431 109.931C115.441 112.548 116.526 115.579 116.526 118.674V119.408C116.526 120.94 115.281 122.216 113.718 122.216H88.7961H60.1088H35.1866C33.6549 122.216 32.3787 120.972 32.3787 119.408V118.674C32.3787 115.579 33.4635 112.516 35.4739 109.931C37.4842 107.346 40.3563 105.272 43.7388 103.996L50.0569 101.634L61.5446 97.3265Z" fill="#060F26"/>
<path d="M63.0122 57.7257C61.1295 57.7257 59.566 59.2574 59.566 61.172C59.566 63.0866 61.0976 64.6183 63.0122 64.6183C64.8949 64.6183 66.4587 63.0866 66.4587 61.172C66.4587 59.2574 64.9268 57.7257 63.0122 57.7257Z" fill="#060F26"/>
<path d="M85.9559 64.6183C87.8386 64.6183 89.4021 63.0866 89.4021 61.172C89.4021 59.2574 87.8705 57.7257 85.9559 57.7257C84.0413 57.7257 82.5097 59.2574 82.5097 61.172C82.5097 63.0866 84.0732 64.6183 85.9559 64.6183Z" fill="#060F26"/>
<path d="M145.15 34.527C143.299 34.527 141.799 36.0268 141.799 37.8776V43.9086C141.799 45.7594 143.299 47.2592 145.15 47.2592C147 47.2592 148.5 45.7594 148.5 43.9086V37.8776C148.5 36.0268 147 34.527 145.15 34.527Z" fill="#060F26"/>
<path d="M127.95 0H21.0502C9.72208 0 0.5 9.22209 0.5 20.5502V127.45C0.5 138.778 9.72208 148 21.0502 148H127.95C139.278 148 148.5 138.778 148.5 127.45V55.492C148.5 53.6412 147 52.1414 145.15 52.1414C143.299 52.1414 141.799 53.6412 141.799 55.492V127.482C141.799 135.108 135.577 141.331 127.95 141.331H21.0502C13.4237 141.331 7.20128 135.108 7.20128 127.482V20.5821C7.20128 12.9556 13.4237 6.73308 21.0502 6.73308H127.95C135.577 6.73308 141.799 12.9556 141.799 20.5821V26.1665C141.799 28.0173 143.299 29.517 145.15 29.517C147 29.517 148.5 28.0173 148.5 26.1665V20.5821C148.5 9.22208 139.278 0 127.95 0Z" fill="#060F26"/>
</svg>
