<svg width="32" height="35" viewBox="0 0 32 35" fill="none" xmlns="http://www.w3.org/2000/svg">
<path d="M4.96997 24.68C3.48997 25.23 2.22998 26.14 1.34998 27.28C0.469976 28.42 0 29.75 0 31.12V33.23C0 33.5 0.129976 33.75 0.349976 33.94C0.569976 34.13 0.879951 34.23 1.19995 34.23H29.96C30.28 34.23 30.58 34.12 30.81 33.94C31.03 33.75 31.16 33.49 31.16 33.23V31.12C31.16 29.76 30.69 28.43 29.81 27.28C28.93 26.14 27.67 25.24 26.19 24.68L20.3799 22.5V21.06C21.4799 20.52 22.44 19.81 23.21 18.96C23.98 18.11 24.5399 17.14 24.8599 16.11H25.17C26.12 16.11 27.04 15.79 27.71 15.23C28.38 14.66 28.7599 13.9 28.7599 13.09C28.7599 12.28 28.38 11.52 27.71 10.95C27.04 10.38 26.12 10.07 25.17 10.07V8.06C25.17 5.92 24.1599 3.87 22.3599 2.36C20.5599 0.850001 18.12 0 15.58 0C13.04 0 10.6 0.850001 8.79999 2.36C6.99999 3.87 5.98999 5.92 5.98999 8.06V10.07C5.03999 10.07 4.11995 10.39 3.44995 10.95C2.77995 11.52 2.39996 12.28 2.39996 13.09C2.39996 13.9 2.77995 14.66 3.44995 15.23C4.11995 15.8 5.03999 16.11 5.98999 16.11H6.29999C6.61999 17.14 7.17995 18.11 7.94995 18.96C8.71995 19.81 9.67997 20.52 10.78 21.06V22.5L4.96997 24.68ZM25.16 12.08C25.48 12.08 25.7799 12.19 26.0099 12.37C26.2299 12.56 26.3599 12.82 26.3599 13.08C26.3599 13.34 26.2299 13.6 26.0099 13.79C25.7899 13.98 25.48 14.08 25.16 14.08V12.08ZM5.98999 14.1C5.66999 14.1 5.36995 13.99 5.13995 13.81C4.91995 13.62 4.78998 13.36 4.78998 13.1C4.78998 12.84 4.91995 12.58 5.13995 12.39C5.35995 12.2 5.66999 12.1 5.98999 12.1V14.1ZM8.38995 8.05C8.38995 6.45 9.14994 4.91 10.4999 3.78C11.8499 2.65 13.68 2.01 15.58 2.01C17.48 2.01 19.32 2.65 20.66 3.78C22.01 4.91 22.77 6.45 22.77 8.05V9.03C22.31 8.96 21.89 8.79 21.55 8.52C21.21 8.26 20.97 7.91 20.85 7.54L20.33 5.8C20.26 5.56 20.09 5.35 19.85 5.21C19.61 5.07 19.32 5.01 19.03 5.04C18.74 5.07 18.47 5.19 18.28 5.37C18.09 5.55 17.9799 5.79 17.9799 6.04C17.9799 6.84 17.6 7.61 16.92 8.17C16.25 8.74 15.3299 9.06 14.3799 9.06H8.38995V8.05ZM10.4899 18.37C9.13993 17.24 8.37994 15.7 8.37994 14.1V11.08H14.3699C15.2799 11.08 16.1699 10.91 16.9899 10.57C17.8099 10.24 18.52 9.75 19.08 9.15C19.47 9.69 20.01 10.14 20.65 10.47C21.29 10.8 22.0099 11 22.7599 11.05V14.09C22.7599 15.69 22 17.23 20.65 18.36C19.3 19.49 17.47 20.13 15.57 20.13C13.67 20.13 11.8399 19.5 10.4899 18.37ZM17.97 21.89V22.53C15.68 23.77 13.18 22.53 13.18 22.53V21.89C14.75 22.24 16.4 22.24 17.97 21.89ZM11.52 24.42C11.68 24.36 11.86 24.35 12.03 24.39C15.72 25.26 18.3199 24.66 19.1199 24.43C19.2999 24.38 19.49 24.39 19.66 24.45L25.19 26.51C26.25 26.91 27.15 27.55 27.78 28.37C28.41 29.19 28.7499 30.14 28.7499 31.11V31.34C28.7499 31.82 28.3599 32.22 27.8699 32.22H20.06H11.07H3.25995C2.77995 32.22 2.38 31.83 2.38 31.34V31.11C2.38 30.14 2.71998 29.18 3.34998 28.37C3.97998 27.56 4.88 26.91 5.94 26.51L7.91998 25.77L11.52 24.42Z" fill="#00E3C2"/>
<path d="M11.9799 12.01C11.3899 12.01 10.8999 12.49 10.8999 13.09C10.8999 13.69 11.3799 14.17 11.9799 14.17C12.5699 14.17 13.0599 13.69 13.0599 13.09C13.0599 12.49 12.5799 12.01 11.9799 12.01Z" fill="#00E3C2"/>
<path d="M19.17 14.17C19.76 14.17 20.25 13.69 20.25 13.09C20.25 12.49 19.77 12.01 19.17 12.01C18.57 12.01 18.0901 12.49 18.0901 13.09C18.0901 13.69 18.58 14.17 19.17 14.17Z" fill="#00E3C2"/>
</svg>
