<svg width="58" height="65" viewBox="0 0 58 65" fill="none" xmlns="http://www.w3.org/2000/svg">
<path d="M22.7895 25.0048V27.3982H25.2049V25.0206C27.3222 24.6741 28.577 23.3987 28.577 21.5879C28.577 19.1315 26.3969 18.5017 24.7971 18.0608C23.7776 17.7773 22.8993 17.5254 22.8993 16.9428C22.8993 16.4547 23.4796 16.3917 23.8403 16.3917C24.6559 16.3917 26.0518 16.8641 27.2124 17.5254L27.385 17.6199L28.6083 15.0533L28.4829 14.9588C27.5575 14.3604 26.3969 13.951 25.2049 13.7936V11.5261H22.7895V13.8251C20.7819 14.203 19.5899 15.4627 19.5899 17.2105C19.5899 19.6196 21.6602 20.1707 23.3228 20.6274C24.3579 20.9108 25.2519 21.147 25.2519 21.7611C25.2519 22.391 24.4363 22.4539 24.0913 22.4539C22.9777 22.4539 21.3622 21.7769 20.3114 20.8636L20.1232 20.7061L18.8528 23.257L18.9626 23.3515C19.9977 24.186 21.3779 24.7844 22.7895 25.0048Z" fill="#060F26"/>
<path d="M58.0004 32.5C58.0004 31.6025 57.2633 30.8624 56.3693 30.8624H47.492V1.6376C47.492 0.97626 47.0999 0.377907 46.4883 0.125969C45.8766 -0.125969 45.1865 0.0157462 44.7159 0.472384L41.438 3.76332L38.16 0.472384C37.5326 -0.157461 36.4974 -0.157461 35.8544 0.472384L32.5764 3.76332L29.2984 0.472384C28.6867 -0.141715 27.6045 -0.141715 26.9928 0.472384L23.7149 3.76332L20.4369 0.472384C19.8252 -0.141715 18.743 -0.141715 18.1313 0.472384L14.9004 3.77907L11.6224 0.48813C11.0107 -0.125969 9.92849 -0.125969 9.31681 0.48813L6.0545 3.77907L2.77652 0.48813C2.16483 -0.125969 1.09831 -0.125969 0.48663 0.472384C0.172947 0.787306 -0.0152631 1.2282 0.000421086 1.66909L0.0161052 58.1032C0.0161052 61.9138 3.10588 65 6.88576 65L51.1151 64.9843C52.9501 64.9843 54.6754 64.2599 55.9772 62.953C57.2789 61.6461 57.9847 59.914 57.9847 58.0717L58.0004 32.5ZM54.7538 58.0875C54.7538 60.0872 53.1227 61.7248 51.1308 61.7248C50.1583 61.7248 49.2643 61.3469 48.5742 60.6541C47.8841 59.9612 47.5077 59.048 47.5077 58.0875V34.1219H54.7538V58.0875ZM3.24704 5.58987L4.89388 7.24322C5.19188 7.54239 5.59966 7.69985 6.03882 7.69985C6.47798 7.69985 6.90145 7.52665 7.18376 7.24322L10.4618 3.95228L13.7554 7.24322C14.0377 7.52665 14.4612 7.69985 14.9004 7.69985C15.3395 7.69985 15.763 7.52665 16.0453 7.24322L19.3233 3.95228L22.6013 7.24322C22.8993 7.54239 23.3071 7.69985 23.7462 7.69985C24.1854 7.69985 24.6089 7.52665 24.8912 7.24322L28.1692 3.95228L31.4471 7.24322C31.7451 7.54239 32.1529 7.69985 32.5921 7.69985C33.0312 7.69985 33.4547 7.52665 33.737 7.24322L37.015 3.93653L40.293 7.22747C40.591 7.52665 40.9988 7.68411 41.438 7.68411C41.8771 7.68411 42.3006 7.5109 42.5829 7.22747L44.2297 5.57413L44.2454 58.0875C44.2454 59.2369 44.5121 60.3234 45.0453 61.3312L45.2649 61.7248H6.88576C5.91335 61.7248 5.00367 61.3469 4.32925 60.6541C3.63914 59.9612 3.26273 59.048 3.26273 58.0875L3.24704 5.58987Z" fill="#060F26"/>
<path d="M33.8624 23.194H36.2935C36.7326 23.194 37.1404 23.0208 37.4384 22.7216C37.7521 22.4067 37.9089 21.9973 37.9089 21.5722C37.9089 20.6746 37.1718 19.9346 36.2778 19.9346H33.8467C32.9527 19.9346 32.2156 20.6746 32.2156 21.5722C32.2156 22.0131 32.3881 22.4225 32.6861 22.7216C33.0312 23.0366 33.4389 23.194 33.8624 23.194Z" fill="#060F26"/>
<path d="M11.1991 23.2099H13.6301C14.0693 23.2099 14.4771 23.0367 14.7751 22.7375C15.0888 22.4226 15.2456 22.0132 15.2456 21.588C15.2456 20.6905 14.5084 19.9504 13.6144 19.9504H11.1834C10.2894 19.9504 9.55225 20.6905 9.55225 21.588C9.55225 22.0289 9.72477 22.4383 10.0228 22.7375C10.3521 23.0367 10.7599 23.2099 11.1991 23.2099Z" fill="#060F26"/>
<path d="M17.1433 37.1451H36.9367C37.8307 37.1451 38.5679 36.405 38.5679 35.5075C38.5679 34.6099 37.8307 33.8699 36.9367 33.8699H17.1433C16.7041 33.8699 16.2964 34.0431 15.9984 34.3423C15.6847 34.6572 15.5278 35.0666 15.5278 35.4917C15.5278 35.9326 15.7004 36.342 15.9984 36.6412C16.2964 36.9719 16.7041 37.1451 17.1433 37.1451Z" fill="#060F26"/>
<path d="M10.5713 37.1293C11.0104 37.1293 11.4339 36.9561 11.7162 36.6727C12.0142 36.3735 12.1867 35.9484 12.1867 35.5232C12.1867 35.0981 12.0142 34.6729 11.7162 34.3738C11.4182 34.0746 10.9948 33.9014 10.5713 33.9014C10.1478 33.9014 9.72433 34.0746 9.42634 34.3738C9.12834 34.6729 8.95581 35.0981 8.95581 35.5232C8.95581 35.9484 9.12834 36.3735 9.42634 36.6727C9.70865 36.9561 10.1164 37.1293 10.5713 37.1293Z" fill="#060F26"/>
<path d="M36.9365 42.1523H17.1431C16.2491 42.1523 15.512 42.8924 15.512 43.7899C15.512 44.2308 15.6845 44.6402 15.9825 44.9394C16.2962 45.2543 16.704 45.4118 17.1274 45.4118H36.9208C37.8148 45.4118 38.552 44.6717 38.552 43.7742C38.552 43.3333 38.3795 42.9239 38.0815 42.6247C37.7835 42.3256 37.3757 42.1523 36.9365 42.1523Z" fill="#060F26"/>
<path d="M10.5711 45.4117C10.9946 45.4117 11.418 45.2542 11.716 44.9551C12.014 44.6559 12.1866 44.2307 12.1866 43.8056C12.1866 43.3805 12.014 42.9553 11.716 42.6561C11.1044 42.042 10.0221 42.042 9.41047 42.6561C9.11247 42.9553 8.93994 43.3805 8.93994 43.8056C8.93994 44.2307 9.11247 44.6559 9.41047 44.9551C9.72415 45.2542 10.1476 45.4117 10.5711 45.4117Z" fill="#060F26"/>
<path d="M36.9365 50.4348H17.1431C16.2491 50.4348 15.512 51.1749 15.512 52.0724C15.512 52.9699 16.2491 53.71 17.1431 53.71H36.9365C37.8305 53.71 38.5677 52.9699 38.5677 52.0724C38.5677 51.1749 37.8305 50.4348 36.9365 50.4348Z" fill="#060F26"/>
<path d="M9.41047 50.923C9.11247 51.2222 8.93994 51.6473 8.93994 52.0724C8.93994 52.4976 9.11247 52.9227 9.41047 53.2219C9.69278 53.5211 10.1163 53.6786 10.5554 53.6786C10.9946 53.6786 11.418 53.5053 11.7004 53.2219C11.9984 52.9227 12.1709 52.4976 12.1709 52.0724C12.1709 51.6473 11.9984 51.2222 11.7004 50.923C11.1044 50.3089 10.0221 50.3089 9.41047 50.923Z" fill="#060F26"/>
</svg>
