<svg width="37" height="37" viewBox="0 0 37 37" fill="none" xmlns="http://www.w3.org/2000/svg">
<path d="M35.667 13.9576H25.3836V1.12019C25.3836 0.504087 24.8795 0 24.2634 0H11.6388C11.0227 0 10.5186 0.504087 10.5186 1.12019V5.54496L0.728125 9.2528C0.29125 9.42083 0 9.8353 0 10.3058V35.8798C0 36.4959 0.504087 37 1.12019 37H35.667C36.2831 37 36.7872 36.4959 36.7872 35.8798V15.0778C36.7872 14.4617 36.2831 13.9576 35.667 13.9576ZM34.5468 34.7708H32.9337C32.9449 34.6924 32.9785 34.6252 32.9785 34.5468V22.8407C32.9785 22.023 32.3176 21.3621 31.4998 21.3621C30.6821 21.3621 30.0212 22.023 30.0212 22.8407V34.5468C30.0212 34.6252 30.0548 34.6924 30.066 34.7708H27.2879C27.2991 34.6924 27.3327 34.6252 27.3327 34.5468V20.2643C27.3327 19.4466 26.6718 18.7856 25.8541 18.7856C25.0363 18.7856 24.3754 19.4466 24.3754 20.2643V34.5468C24.3754 34.6252 24.409 34.6924 24.4202 34.7708H22.7175V16.198H34.5356V34.7708H34.5468ZM20.4883 34.7708H16.3772V31.3318H20.4883V34.7708ZM23.1432 2.24039V13.9464H21.6085C20.9924 13.9464 20.4883 14.4505 20.4883 15.0666V29.0802H15.257C14.6409 29.0802 14.1368 29.5843 14.1368 30.2004V34.7596H12.759V2.24039H23.1432ZM10.5186 7.95337V34.7708H2.24039V11.0899L10.5186 7.95337Z" fill="#00E3C2"/>
<path d="M5.36574 31.3987H7.49411C8.31185 31.3987 8.97277 30.7378 8.97277 29.9201C8.97277 29.1023 8.31185 28.4414 7.49411 28.4414H5.36574C4.548 28.4414 3.88708 29.1023 3.88708 29.9201C3.88708 30.7378 4.548 31.3987 5.36574 31.3987Z" fill="#00E3C2"/>
<path d="M5.36574 26.2015H7.49411C8.31185 26.2015 8.97277 25.5405 8.97277 24.7228C8.97277 23.9051 8.31185 23.2441 7.49411 23.2441H5.36574C4.548 23.2441 3.88708 23.9051 3.88708 24.7228C3.88708 25.5405 4.548 26.2015 5.36574 26.2015Z" fill="#00E3C2"/>
<path d="M5.36574 21.0039H7.49411C8.31185 21.0039 8.97277 20.343 8.97277 19.5253C8.97277 18.7075 8.31185 18.0466 7.49411 18.0466H5.36574C4.548 18.0466 3.88708 18.7075 3.88708 19.5253C3.88708 20.343 4.548 21.0039 5.36574 21.0039Z" fill="#00E3C2"/>
<path d="M5.36574 15.8057H7.49411C8.31185 15.8057 8.97277 15.1448 8.97277 14.327C8.97277 13.5093 8.31185 12.8484 7.49411 12.8484H5.36574C4.548 12.8484 3.88708 13.5093 3.88708 14.327C3.88708 15.1448 4.548 15.8057 5.36574 15.8057Z" fill="#00E3C2"/>
<path d="M15.6155 26.2124H17.7439C18.5616 26.2124 19.2225 25.5515 19.2225 24.7338C19.2225 23.916 18.5616 23.2551 17.7439 23.2551H15.6155C14.7978 23.2551 14.1368 23.916 14.1368 24.7338C14.1368 25.5515 14.7978 26.2124 15.6155 26.2124Z" fill="#00E3C2"/>
<path d="M15.6155 21.0149H17.7439C18.5616 21.0149 19.2225 20.354 19.2225 19.5363C19.2225 18.7185 18.5616 18.0576 17.7439 18.0576H15.6155C14.7978 18.0576 14.1368 18.7185 14.1368 19.5363C14.1368 20.354 14.7978 21.0149 15.6155 21.0149Z" fill="#00E3C2"/>
<path d="M15.6155 15.8174H17.7439C18.5616 15.8174 19.2225 15.1565 19.2225 14.3388C19.2225 13.521 18.5616 12.8601 17.7439 12.8601H15.6155C14.7978 12.8601 14.1368 13.521 14.1368 14.3388C14.1368 15.1565 14.7978 15.8174 15.6155 15.8174Z" fill="#00E3C2"/>
<path d="M15.6155 10.6194H20.3987C21.2165 10.6194 21.8774 9.95851 21.8774 9.14077C21.8774 8.32303 21.2165 7.66211 20.3987 7.66211H15.6155C14.7978 7.66211 14.1368 8.32303 14.1368 9.14077C14.1368 9.95851 14.7978 10.6194 15.6155 10.6194Z" fill="#00E3C2"/>
</svg>
