<svg width="149" height="148" viewBox="0 0 149 148" fill="none" xmlns="http://www.w3.org/2000/svg">
<path d="M145.149 34.5277C143.299 34.5277 141.799 36.0275 141.799 37.8783V43.9093C141.799 45.7601 143.299 47.2599 145.149 47.2599C147 47.2599 148.5 45.7601 148.5 43.9093V37.8783C148.5 36.0275 147 34.5277 145.149 34.5277Z" fill="#060F26"/>
<path d="M127.95 0H21.0502C9.72207 0 0.5 9.22208 0.5 20.5502V127.45C0.5 138.778 9.72207 148 21.0502 148H127.95C139.278 148 148.5 138.778 148.5 127.45V55.492C148.5 53.6412 147 52.1414 145.149 52.1414C143.299 52.1414 141.799 53.6412 141.799 55.492V127.482C141.799 135.108 135.576 141.331 127.95 141.331H21.0502C13.4237 141.331 7.20117 135.108 7.20117 127.482V20.5821C7.20117 12.9556 13.4237 6.73308 21.0502 6.73308H127.95C135.576 6.73308 141.799 12.9556 141.799 20.5821V26.1664C141.799 28.0172 143.299 29.517 145.149 29.517C147 29.517 148.5 28.0172 148.5 26.1664V20.5821C148.5 9.22208 139.278 0 127.95 0Z" fill="#060F26"/>
<path d="M123.706 61.0442H94.4121V24.475C94.4121 22.7199 92.9761 21.2839 91.2211 21.2839H55.2581C53.5031 21.2839 52.0671 22.7199 52.0671 24.475V37.0795L24.1775 47.6418C22.933 48.1205 22.1033 49.3012 22.1033 50.6414V123.493C22.1033 125.248 23.5393 126.684 25.2944 126.684H123.706C125.461 126.684 126.897 125.248 126.897 123.493V64.2352C126.897 62.4801 125.461 61.0442 123.706 61.0442ZM120.515 120.334H115.92C115.952 120.11 116.047 119.919 116.047 119.695V86.3491C116.047 84.0196 114.165 82.1369 111.835 82.1369C109.506 82.1369 107.623 84.0196 107.623 86.3491V119.695C107.623 119.919 107.719 120.11 107.751 120.334H99.8368C99.8688 120.11 99.9645 119.919 99.9645 119.695V79.0097C99.9645 76.6802 98.0818 74.7975 95.7523 74.7975C93.4229 74.7975 91.5402 76.6802 91.5402 79.0097V119.695C91.5402 119.919 91.6359 120.11 91.6678 120.334H86.8174V67.4262H120.483V120.334H120.515ZM80.4673 120.334H68.7562V110.537H80.4673V120.334ZM88.03 27.666V61.0123H83.6583C81.9033 61.0123 80.4673 62.4482 80.4673 64.2033V104.123H65.5652C63.8101 104.123 62.3741 105.559 62.3741 107.314V120.302H58.4492V27.666H88.03ZM52.0671 43.9403V120.334H28.4854V52.8751L52.0671 43.9403Z" fill="#060F26"/>
<path d="M37.3883 110.728H43.4513C45.7807 110.728 47.6634 108.845 47.6634 106.516C47.6634 104.186 45.7807 102.303 43.4513 102.303H37.3883C35.0589 102.303 33.1761 104.186 33.1761 106.516C33.1761 108.845 35.0589 110.728 37.3883 110.728Z" fill="#060F26"/>
<path d="M37.3883 95.9221H43.4513C45.7807 95.9221 47.6634 94.0394 47.6634 91.71C47.6634 89.3805 45.7807 87.4978 43.4513 87.4978H37.3883C35.0589 87.4978 33.1761 89.3805 33.1761 91.71C33.1761 94.0394 35.0589 95.9221 37.3883 95.9221Z" fill="#060F26"/>
<path d="M37.3883 81.1166H43.4513C45.7807 81.1166 47.6634 79.2339 47.6634 76.9044C47.6634 74.575 45.7807 72.6923 43.4513 72.6923H37.3883C35.0589 72.6923 33.1761 74.575 33.1761 76.9044C33.1761 79.2339 35.0589 81.1166 37.3883 81.1166Z" fill="#060F26"/>
<path d="M37.3883 66.3087H43.4513C45.7807 66.3087 47.6634 64.426 47.6634 62.0966C47.6634 59.7671 45.7807 57.8844 43.4513 57.8844H37.3883C35.0589 57.8844 33.1761 59.7671 33.1761 62.0966C33.1761 64.426 35.0589 66.3087 37.3883 66.3087Z" fill="#060F26"/>
<path d="M66.5863 95.9535H72.6493C74.9787 95.9535 76.8614 94.0708 76.8614 91.7413C76.8614 89.4119 74.9787 87.5292 72.6493 87.5292H66.5863C64.2569 87.5292 62.3741 89.4119 62.3741 91.7413C62.3741 94.0708 64.2569 95.9535 66.5863 95.9535Z" fill="#060F26"/>
<path d="M66.5863 81.148H72.6493C74.9787 81.148 76.8614 79.2653 76.8614 76.9358C76.8614 74.6063 74.9787 72.7236 72.6493 72.7236H66.5863C64.2569 72.7236 62.3741 74.6063 62.3741 76.9358C62.3741 79.2653 64.2569 81.148 66.5863 81.148Z" fill="#060F26"/>
<path d="M66.5863 66.3424H72.6493C74.9787 66.3424 76.8614 64.4597 76.8614 62.1302C76.8614 59.8008 74.9787 57.9181 72.6493 57.9181H66.5863C64.2569 57.9181 62.3741 59.8008 62.3741 62.1302C62.3741 64.4597 64.2569 66.3424 66.5863 66.3424Z" fill="#060F26"/>
<path d="M66.5863 51.5346H80.212C82.5414 51.5346 84.4241 49.6519 84.4241 47.3224C84.4241 44.9929 82.5414 43.1102 80.212 43.1102H66.5863C64.2569 43.1102 62.3741 44.9929 62.3741 47.3224C62.3741 49.6519 64.2569 51.5346 66.5863 51.5346Z" fill="#060F26"/>
</svg>
